
<svg width="92" height="115" viewBox="0 0 92 115" fill="none" xmlns="http://www.w3.org/2000/svg">
<path d="M46 92C71.4051 92 92 71.4051 92 46C92 20.5949 71.4051 0 46 0C20.5949 0 0 20.5949 0 46C0 71.4051 20.5949 92 46 92Z" fill="#FFFAE4"/>
<path d="M86 34H6C10.9462 16.6855 26.9857 4 46 4C65.0143 4 81.0538 16.6855 86 34Z" fill="black"/>
<path d="M88 45.5C88 49.4843 87.4478 53.3417 86.4069 57H5.5931C4.55216 53.3417 4 49.4843 4 45.5C4 41.5157 4.55216 37.6583 5.5931 34H86.4069C87.4478 37.6583 88 41.5157 88 45.5Z" fill="#EF8D21"/>
<path d="M86 57C81.0538 74.8917 65.0143 88 46 88C26.9857 88 10.9462 74.8917 6 57H86Z" fill="#FFFAE4"/>
<path opacity="0.3" d="M60.0067 75.9425H31.9934C29.936 75.9425 29.0286 74.9211 30.6368 74.424L30.6997 74.4059C32.1012 73.972 33.8442 73.728 35.6321 73.728H56.377C58.2098 73.728 59.9797 73.972 61.3902 74.433C62.9715 74.9301 62.0551 75.9425 60.0067 75.9425Z" fill="black"/>
<path d="M47.77 46.4852C47.77 46.6027 47.752 46.7112 47.725 46.8196C47.6711 46.8196 47.6262 46.8287 47.5723 46.8287C47.2039 46.8467 46.8446 46.8829 46.4762 46.9371C46.8446 47.0004 47.2039 47.0275 47.5723 47.0456C47.5992 47.0456 47.6262 47.0456 47.6532 47.0456C47.3926 47.7054 46.7547 48.1845 46 48.1845C45.2543 48.1845 44.6074 47.7145 44.3469 47.0456C44.3739 47.0456 44.4008 47.0456 44.4278 47.0456C44.7961 47.0275 45.1555 46.9914 45.5239 46.9371C45.1555 46.8739 44.7961 46.8467 44.4278 46.8287C44.3739 46.8287 44.3289 46.8196 44.275 46.8196C44.2481 46.7112 44.2301 46.6027 44.2301 46.4852C44.293 46.4852 44.3649 46.4762 44.4278 46.4762C44.7961 46.4581 45.1555 46.4219 45.5239 46.3677C45.1555 46.3044 44.7961 46.2773 44.4278 46.2592C44.3649 46.2592 44.302 46.2502 44.2391 46.2502C44.2481 46.1327 44.275 46.0242 44.302 45.9158C44.3469 45.9158 44.3828 45.9158 44.4278 45.9067C44.7961 45.8887 45.1555 45.8525 45.5239 45.7983C45.1555 45.735 44.7961 45.7079 44.4278 45.6898C44.4188 45.6898 44.4008 45.6898 44.3918 45.6898C44.4547 45.5452 44.5446 45.4096 44.6434 45.2831C44.9668 44.8944 45.461 44.6413 46 44.6413C46.602 44.6413 47.1321 44.9396 47.4555 45.4096C47.5184 45.5 47.5723 45.5904 47.6082 45.6898C47.5992 45.6898 47.5813 45.6898 47.5723 45.6898C47.2039 45.7079 46.8446 45.744 46.4762 45.7983C46.8446 45.8615 47.2039 45.8887 47.5723 45.9067C47.6172 45.9067 47.6532 45.9158 47.6981 45.9158C47.734 46.0242 47.752 46.1327 47.761 46.2502C47.6981 46.2502 47.6352 46.2592 47.5723 46.2592C47.2039 46.2773 46.8446 46.3135 46.4762 46.3677C46.8446 46.431 47.2039 46.4581 47.5723 46.4762C47.6352 46.4762 47.7071 46.4762 47.77 46.4852Z" fill="#FFFCFD"/>
<path d="M59.2071 38.504V59.2118C59.2071 61.9686 57.1586 64.2825 54.4364 64.6079C52.9 64.7887 51.4086 64.9243 49.9981 65.0147V61.2003H51.211C52.2082 61.2003 53.0258 60.3868 53.0258 59.3745V54.5478C53.0258 54.4755 53.0258 54.3941 53.0258 54.3218C53.0258 54.2947 53.0258 54.2766 53.0258 54.2495C53.0258 54.1953 53.0168 54.1501 53.0168 54.1049C53.0168 54.0778 53.0078 54.0416 53.0078 54.0145C53.0078 53.9693 52.9989 53.9241 52.9989 53.8789C52.9989 53.8428 52.9899 53.8157 52.9899 53.7885C52.9899 53.7433 52.9809 53.7072 52.9719 53.662C52.9719 53.6258 52.9629 53.5987 52.9539 53.5626C52.945 53.5264 52.945 53.4812 52.936 53.4451C52.927 53.4089 52.927 53.3818 52.918 53.3456C52.909 53.3095 52.9 53.2643 52.9 53.2281C52.891 53.192 52.8821 53.1649 52.8731 53.1287C52.8641 53.0926 52.8551 53.0564 52.8461 53.0112C52.8371 52.9751 52.8282 52.9479 52.8192 52.9118C52.8102 52.8756 52.8012 52.8395 52.7922 52.8033C52.7832 52.7672 52.7743 52.74 52.7653 52.7039C52.7563 52.6677 52.7473 52.6316 52.7293 52.5954C52.7203 52.5593 52.7114 52.5322 52.6934 52.496C52.6844 52.4598 52.6664 52.4237 52.6575 52.3875C52.6485 52.3514 52.6305 52.3243 52.6215 52.2881C52.6125 52.252 52.5946 52.2158 52.5766 52.1796C52.5676 52.1435 52.5496 52.1164 52.5407 52.0802C52.5227 52.0441 52.5137 52.0079 52.4957 51.9718C52.4868 51.9446 52.4688 51.9085 52.4598 51.8814C52.4418 51.8452 52.4239 51.8181 52.4149 51.7819C52.4059 51.7548 52.3879 51.7187 52.37 51.6916C52.352 51.6554 52.334 51.6283 52.316 51.5921C52.2981 51.565 52.2891 51.5289 52.2711 51.5017C52.2532 51.4656 52.2352 51.4385 52.2172 51.4023C52.1993 51.3752 52.1813 51.339 52.1633 51.3119C52.1453 51.2758 52.1274 51.2487 52.1004 51.2125C52.0825 51.1854 52.0645 51.1583 52.0465 51.1312C52.0285 51.095 52.0106 51.0679 51.9836 51.0317C51.9657 51.0046 51.9477 50.9775 51.9297 50.9504C51.9118 50.9142 51.8848 50.8871 51.8668 50.86C51.8489 50.8329 51.8309 50.8058 51.8129 50.7786C51.786 50.7515 51.768 50.7154 51.7411 50.6883C51.7231 50.6611 51.7051 50.634 51.6782 50.6069C51.6512 50.5708 51.6243 50.5436 51.6063 50.5165C51.5883 50.4894 51.5703 50.4713 51.5434 50.4442C51.5164 50.4081 51.4895 50.3809 51.4625 50.3448C51.4446 50.3267 51.4266 50.2996 51.3996 50.2815C51.3637 50.2454 51.3278 50.2092 51.3008 50.173C51.2828 50.155 51.2739 50.1369 51.2559 50.1278C51.202 50.0736 51.1571 50.0284 51.1032 49.9742C51.0852 49.9561 51.0672 49.938 51.0493 49.92C51.0133 49.8838 50.9774 49.8567 50.9504 49.8296C50.9235 49.8115 50.9055 49.7934 50.8785 49.7663C50.8516 49.7392 50.8157 49.7121 50.7887 49.685C50.7618 49.6669 50.7348 49.6488 50.7168 49.6217C50.6899 49.5946 50.6539 49.5674 50.627 49.5403C50.6 49.5223 50.5731 49.5042 50.5461 49.4771C50.5102 49.4499 50.4832 49.4319 50.4473 49.4047C50.4203 49.3867 50.3934 49.3686 50.3664 49.3415C50.3395 49.3234 50.3035 49.2963 50.2676 49.2782C50.2407 49.2601 50.2137 49.2421 50.1778 49.224C50.1418 49.2059 50.1149 49.1788 50.0789 49.1607L49.9891 49.1065C49.9532 49.0884 49.9262 49.0703 49.8903 49.0432C49.8364 49.0161 49.7914 48.9799 49.7375 48.9528C49.5578 48.3743 49.3871 47.7326 49.2344 47.0547C49.2164 46.9643 49.1985 46.8739 49.1715 46.7835V46.7654C49.1805 46.666 49.1895 46.5756 49.1895 46.4762C49.1895 46.4491 49.1895 46.4129 49.1895 46.3858C49.1895 46.3225 49.1895 46.2593 49.1805 46.205C49.1715 46.1056 49.1625 45.9971 49.1446 45.8977C49.1356 45.8073 49.1086 45.7079 49.0907 45.6175C49.0278 45.3464 48.9289 45.0842 48.7942 44.8492C48.4078 42.5805 48.1293 40.1039 47.8868 37.9436C47.6891 36.2263 47.5274 34.7349 47.3387 33.6412C47.1231 32.3667 46.8715 31.3092 46.009 31.3092C45.1465 31.3092 44.895 32.3667 44.6793 33.6412C44.4907 34.7349 44.3289 36.2263 44.1313 37.9436C43.8977 40.0496 43.6192 42.454 43.2508 44.6684C43.0711 44.9577 42.9364 45.274 42.8555 45.6175C42.8286 45.7079 42.8106 45.7983 42.8016 45.8887C42.7836 45.9881 42.7746 46.0875 42.7657 46.196C42.7657 46.2593 42.7567 46.3225 42.7567 46.3768C42.7567 46.4039 42.7567 46.44 42.7567 46.4672C42.7567 46.5666 42.7657 46.675 42.7746 46.7745C42.7836 46.8377 42.7926 46.901 42.8016 46.9643C42.7926 46.9914 42.7926 47.0185 42.7836 47.0456C42.6399 47.7145 42.4692 48.3382 42.2985 48.9076C42.2446 48.9347 42.1996 48.9619 42.1457 48.989C42.1098 49.007 42.0739 49.0251 42.0469 49.0522C42.02 49.0703 41.984 49.0884 41.9571 49.1065C41.9211 49.1245 41.8852 49.1517 41.8582 49.1697C41.8313 49.1878 41.8043 49.2059 41.7774 49.224C41.7414 49.2511 41.7145 49.2692 41.6785 49.2963C41.6516 49.3144 41.6246 49.3324 41.5977 49.3505C41.5618 49.3776 41.5348 49.3957 41.4989 49.4228C41.4719 49.4409 41.445 49.459 41.418 49.4771C41.3821 49.5042 41.3551 49.5313 41.3192 49.5584C41.2922 49.5765 41.2743 49.5946 41.2473 49.6126C41.2114 49.6398 41.1754 49.6759 41.1485 49.703C41.1305 49.7211 41.1035 49.7392 41.0856 49.7573C41.0496 49.7934 41.0137 49.8296 40.9778 49.8567C40.9598 49.8748 40.9418 49.8838 40.9328 49.9019C40.825 50.0013 40.7262 50.1098 40.6274 50.2182C40.6094 50.2363 40.6004 50.2544 40.5825 50.2634C40.5465 50.2996 40.5106 50.3448 40.4836 50.3809C40.4657 50.399 40.4477 50.4261 40.4297 50.4442C40.4028 50.4804 40.3758 50.5165 40.3489 50.5527C40.3309 50.5798 40.3129 50.5979 40.295 50.625C40.268 50.6611 40.2411 50.6883 40.2141 50.7244L40.1602 50.7967C40.1332 50.8329 40.1153 50.86 40.0883 50.8961C40.0703 50.9233 40.0524 50.9504 40.0344 50.9775C40.0164 51.0136 39.9895 51.0408 39.9715 51.0769C39.9535 51.104 39.9356 51.1312 39.9176 51.1583C39.8996 51.1944 39.8817 51.2215 39.8547 51.2577C39.8368 51.2848 39.8188 51.3119 39.8008 51.339C39.7828 51.3752 39.7649 51.4114 39.7469 51.4385C39.7289 51.4656 39.711 51.5017 39.702 51.5289L39.6481 51.6373C39.6391 51.6644 39.6211 51.7006 39.6032 51.7277C39.5852 51.7639 39.5672 51.8 39.5493 51.8362C39.5403 51.8633 39.5223 51.8994 39.5133 51.9266C39.4953 51.9627 39.4774 51.9989 39.4684 52.035C39.4594 52.0621 39.4414 52.0983 39.4325 52.1254C39.4145 52.1616 39.4055 52.1977 39.3875 52.2339C39.3786 52.261 39.3606 52.2972 39.3516 52.3243C39.3336 52.3604 39.3246 52.3966 39.3157 52.4327C39.3067 52.4689 39.2977 52.496 39.2887 52.5322C39.2797 52.5683 39.2618 52.6045 39.2528 52.6406C39.2438 52.6768 39.2348 52.7039 39.2258 52.74C39.2168 52.7762 39.2078 52.8124 39.1989 52.8576C39.1899 52.8937 39.1809 52.9208 39.1719 52.957C39.1629 52.9931 39.1539 53.0383 39.145 53.0745C39.136 53.1106 39.127 53.1378 39.127 53.1739C39.118 53.2101 39.109 53.2553 39.1 53.2914C39.0911 53.3276 39.0911 53.3547 39.0821 53.3908C39.0731 53.427 39.0731 53.4722 39.0641 53.5083C39.0641 53.5445 39.0551 53.5716 39.0461 53.6078C39.0371 53.653 39.0371 53.6891 39.0282 53.7343C39.0282 53.7614 39.0192 53.7976 39.0192 53.8247C39.0102 53.8699 39.0102 53.9151 39.0102 53.9603C39.0102 53.9874 39.0012 54.0236 39.0012 54.0507C39.0012 54.1049 38.9922 54.1501 38.9922 54.1953C38.9922 54.2224 38.9922 54.2495 38.9922 54.2676C38.9922 54.3399 38.9922 54.4122 38.9922 54.4936V59.3203C38.9922 59.3835 38.9922 59.4468 39.0012 59.5101C39.0911 60.432 39.8637 61.1461 40.8071 61.1461H42.02V64.9604C40.9239 64.8881 39.7918 64.7887 38.6328 64.6712C38.3004 64.635 37.968 64.5989 37.6266 64.5627C34.9043 64.2464 32.8559 61.9234 32.8559 59.1666V38.504C32.8559 28.236 34.518 26.7265 40.9778 26.3288L42.9094 26.2565C42.8825 27.2146 42.8375 28.1818 42.7836 29.1489C42.7387 29.9082 42.6938 30.6674 42.6399 31.4176C42.5051 33.2887 42.3254 35.1506 42.1008 37.0126C41.993 37.9436 41.8582 38.8746 41.7145 39.7966C41.5707 40.7276 41.409 41.6495 41.2293 42.5624C41.1395 43.0234 41.0407 43.4753 40.9328 43.9363C40.825 44.3882 40.7172 44.8492 40.5914 45.3012C40.3489 46.205 40.0793 47.1089 39.7559 47.9857C40.1243 47.118 40.4297 46.2322 40.7082 45.3373C40.852 44.8854 40.9778 44.4334 41.1036 43.9815C41.2203 43.5296 41.3461 43.0686 41.4539 42.6167C41.6785 41.7037 41.8762 40.7818 42.0649 39.8598C42.2536 38.9379 42.4153 38.0069 42.568 37.0849C42.8735 35.223 43.134 33.361 43.3496 31.49C43.4485 30.6313 43.5383 29.7635 43.6192 28.9049C43.7 28.0191 43.7809 27.1333 43.8438 26.2384C43.8797 26.2384 43.9246 26.2384 43.9606 26.2384C44.5535 26.2294 45.2004 26.2294 46.018 26.2294C46.8625 26.2294 47.5274 26.2294 48.1203 26.2384C48.1653 26.8983 48.2192 27.5581 48.2821 28.2089C48.3809 29.3026 48.4887 30.3963 48.6145 31.499C48.8301 33.37 49.0817 35.241 49.3961 37.094C49.5489 38.025 49.7196 38.9469 49.8993 39.8689C50.0789 40.7908 50.2856 41.7128 50.5102 42.6257C50.618 43.0867 50.7438 43.5386 50.8606 43.9905C50.9864 44.4425 51.1121 44.8944 51.2559 45.3464C51.5344 46.2412 51.8489 47.136 52.2082 47.9947C51.8848 47.1179 51.6153 46.2141 51.3727 45.3102C51.2469 44.8583 51.1481 44.3973 51.0313 43.9453C50.9325 43.4844 50.8246 43.0324 50.7348 42.5715C50.5551 41.6495 50.3934 40.7276 50.2496 39.8056C50.1059 38.8836 49.9801 37.9527 49.8633 37.0217C49.6387 35.1597 49.459 33.2977 49.3243 31.4267C49.2434 30.342 49.1805 29.2574 49.1266 28.1727C49.0996 27.54 49.0727 26.8983 49.0547 26.2656L51.0672 26.3469C54.2926 26.5458 56.3141 27.0158 57.545 28.7241C58.7848 30.4143 59.2071 33.361 59.2071 38.504Z" fill="#7DDCFC"/>
<path d="M31.5351 23.2828C29.5406 23.6172 28.0132 23.9697 27.3484 24.1324C27.2047 23.9245 27.2406 23.6443 27.3035 23.4364L31.4453 22.6049C31.4453 22.6139 31.4453 22.6229 31.4453 22.632C31.4453 22.641 31.4453 22.6591 31.4453 22.6681C31.4543 22.7676 31.4632 22.867 31.4812 22.9574C31.4812 22.9664 31.4812 22.9755 31.4812 22.9755C31.4992 23.0749 31.5171 23.1743 31.5351 23.2647C31.5351 23.2737 31.5351 23.2737 31.5351 23.2828Z" fill="#545653"/>
<path d="M64.6516 24.1324C63.9867 23.9697 62.4594 23.6172 60.4648 23.2918V23.2828C60.4828 23.1834 60.5008 23.093 60.5187 22.9935C60.5187 22.9845 60.5187 22.9845 60.5187 22.9755C60.5277 22.876 60.5457 22.7857 60.5547 22.6862C60.5547 22.6772 60.5547 22.6591 60.5547 22.6501C60.5547 22.641 60.5547 22.632 60.5547 22.623L64.6965 23.4545C64.7594 23.6443 64.7953 23.9155 64.6516 24.1324Z" fill="#545653"/>
<path d="M59.1262 22.3156C59.1262 22.3789 59.1262 22.4512 59.1172 22.5144V22.5235C59.1082 22.5958 59.1082 22.6591 59.0992 22.7223C59.0992 22.7404 59.0902 22.7675 59.0902 22.7856C59.0813 22.8308 59.0723 22.876 59.0723 22.9212C59.0633 22.9664 59.0543 23.0116 59.0453 23.0568C56.7813 22.7404 54.6879 22.5777 52.7832 22.5777C52.0195 22.5777 51.2738 22.6048 50.5731 22.6591C50.8426 22.0444 50.9953 21.3665 51.0043 20.6796L59.1262 22.3156Z" fill="#7DDCFC"/>
<path d="M49.5309 20.6344C49.5309 21.5474 49.1895 22.4151 48.5695 23.0749C48.3809 23.2738 48.1742 23.4545 47.9496 23.5992C47.3656 23.9878 46.6918 24.1957 45.991 24.1957C45.3621 24.1957 44.7422 24.024 44.2031 23.7076C43.8977 23.5268 43.6281 23.3099 43.3945 23.0478C42.7836 22.388 42.4512 21.5293 42.4512 20.6254C42.4512 20.3904 42.4781 20.1554 42.523 19.9294C42.8465 18.2663 44.3109 17.0641 46 17.0641C47.6711 17.0641 49.1355 18.2572 49.468 19.9023C49.5129 20.1373 49.5309 20.3814 49.5309 20.6344Z" fill="#FFFCFD"/>
<path d="M41.4359 22.6681C38.9832 22.4873 36.1441 22.6229 32.9636 23.0658C32.9546 23.0206 32.9457 22.9754 32.9367 22.9302C32.9277 22.885 32.9187 22.8398 32.9097 22.7946C32.9097 22.7765 32.9007 22.7494 32.9007 22.7314C32.8917 22.6681 32.8828 22.5958 32.8828 22.5325V22.5235C32.8738 22.4602 32.8738 22.3969 32.8738 22.3246L41.0136 20.6976C41.0136 20.7699 41.0136 20.8423 41.0226 20.9146C41.0226 20.9507 41.0316 20.9869 41.0316 21.023C41.0406 21.0682 41.0406 21.1134 41.0406 21.1586C41.0406 21.1948 41.0496 21.2309 41.0496 21.2671C41.0585 21.3123 41.0585 21.3575 41.0675 21.4027C41.0765 21.4388 41.0765 21.475 41.0855 21.5111C41.0945 21.5563 41.1035 21.6015 41.1125 21.6467C41.1214 21.6829 41.1304 21.719 41.1304 21.7461C41.1394 21.7913 41.1574 21.8365 41.1664 21.8817C41.1753 21.9179 41.1843 21.945 41.1933 21.9811C41.2023 22.0263 41.2203 22.0806 41.2382 22.1258C41.2472 22.1529 41.2562 22.189 41.2652 22.2161C41.2832 22.2704 41.3011 22.3246 41.3191 22.3698C41.3281 22.3969 41.3371 22.415 41.346 22.4421C41.373 22.5235 41.4 22.5958 41.4359 22.6681Z" fill="#7DDCFC"/>
<path opacity="0.2" d="M42.9184 26.2557C42.9004 26.8522 42.8824 27.4488 42.8465 28.0453H41.9032C37.959 28.0453 34.7696 31.2631 34.7696 35.2221V59.7894C34.7696 61.4887 35.3535 63.0434 36.3328 64.2726C34.2844 63.4863 32.8649 61.4978 32.8649 59.2019V38.5032C32.8649 28.2352 34.527 26.7257 40.9867 26.328L42.9184 26.2557Z" fill="black"/>
<path opacity="0.2" d="M48.2821 28.0462H43.718C43.7719 27.4406 43.8168 26.835 43.8618 26.2294C43.8977 26.2294 43.9426 26.2294 43.9786 26.2294C44.5715 26.2204 45.2184 26.2204 46.036 26.2204C46.8805 26.2204 47.5454 26.2204 48.1383 26.2294C48.1743 26.844 48.2282 27.4496 48.2821 28.0462Z" fill="black"/>
<path opacity="0.2" d="M58.8297 32.2221C57.6977 29.7545 55.227 28.0462 52.352 28.0462H49.1446C49.1176 27.4497 49.0907 26.8441 49.0727 26.2475L51.0852 26.3288C54.3106 26.5277 56.3321 26.9977 57.5629 28.706C58.1649 29.5466 58.5692 30.6765 58.8297 32.2221Z" fill="black"/>
<path d="M65.8465 22.4602L65.6848 22.1619L59.8629 20.9959L50.7438 19.1701C50.1149 17.0912 48.1742 15.6179 45.982 15.6179C43.7809 15.6179 41.8403 17.0822 41.2203 19.1701L32.1281 20.9869L26.3063 22.1529L26.1445 22.4512C25.7672 23.1652 25.4168 24.7199 26.8004 25.5334L27.052 25.6871L27.3395 25.6147C27.3574 25.6057 29.5676 25.0363 32.5684 24.5843C35.2367 24.1866 39.1 23.807 42.5051 24.2318C42.7117 24.4307 42.9274 24.6114 43.1699 24.7741C43.1699 24.7832 43.1699 24.7832 43.161 24.8013C42.9363 24.8103 42.7387 24.8103 42.55 24.8193L42.3254 24.8284L41.6156 24.8645C37.8692 25.0453 35.0391 25.6147 33.386 27.8112C31.7508 29.9985 31.4184 33.6683 31.4184 38.513V59.2208C31.4184 62.7098 34.0149 65.6474 37.4559 66.0541C39.0192 66.2349 40.5555 66.3795 42.011 66.4699V72.3451C42.011 73.9088 43.2778 75.1832 44.832 75.1832H47.168C48.7223 75.1832 49.9891 73.9088 49.9891 72.3451V66.4699C51.4535 66.3795 52.9988 66.2349 54.5891 66.0541C58.0301 65.6474 60.6266 62.7098 60.6266 59.2208V38.504C60.6266 33.6592 60.2942 29.9895 58.659 27.8021C57.0149 25.5967 54.1758 25.0272 50.4293 24.8555L49.7196 24.8193L49.4949 24.8103C49.3242 24.8013 49.1535 24.8013 48.9649 24.8013C48.9738 24.738 48.9828 24.6747 48.9918 24.6205C49.1445 24.503 49.2973 24.3674 49.441 24.2318C52.8551 23.798 56.7274 24.1776 59.4047 24.5843C62.4055 25.0363 64.6156 25.6147 64.6336 25.6147L64.9211 25.6871L65.1727 25.5334C66.5742 24.7289 66.2239 23.1743 65.8465 22.4602ZM31.5352 23.2827C29.8641 23.5539 28.5164 23.8522 27.7348 24.033C27.582 24.0691 27.4563 24.0962 27.3485 24.1234C27.2047 23.9155 27.2406 23.6353 27.3035 23.4274L31.4453 22.5958C31.4453 22.6048 31.4453 22.6139 31.4453 22.6229C31.4453 22.632 31.4453 22.65 31.4453 22.6591C31.4543 22.7585 31.4633 22.8579 31.4813 22.9483C31.4813 22.9574 31.4813 22.9664 31.4813 22.9664C31.4902 22.9935 31.4902 23.0297 31.4992 23.0568C31.5082 23.1201 31.5262 23.1924 31.5352 23.2556C31.5352 23.2737 31.5352 23.2737 31.5352 23.2827ZM41.436 22.6681C39.082 22.4964 36.3867 22.6139 33.368 23.0116C33.2332 23.0297 33.0985 23.0477 32.9637 23.0658C32.9547 23.0206 32.9457 22.9754 32.9367 22.9302C32.9278 22.885 32.9188 22.8399 32.9098 22.7947C32.9098 22.7766 32.9008 22.7495 32.9008 22.7314C32.8918 22.6681 32.8828 22.5958 32.8828 22.5325V22.5235C32.8738 22.4602 32.8738 22.397 32.8738 22.3246L41.0137 20.6977C41.0137 20.77 41.0137 20.8423 41.0227 20.9146C41.0227 20.9508 41.0317 20.9869 41.0317 21.0231C41.0406 21.0683 41.0406 21.1134 41.0406 21.1586V21.1677C41.0406 21.2038 41.0496 21.231 41.0496 21.2671C41.0586 21.3123 41.0586 21.3575 41.0676 21.4027C41.0766 21.4388 41.0766 21.475 41.0856 21.5112C41.0945 21.5563 41.1035 21.6015 41.1125 21.6467C41.1215 21.6829 41.1305 21.719 41.1305 21.7462C41.1395 21.7914 41.1574 21.8365 41.1664 21.8817C41.1754 21.9179 41.1844 21.945 41.1934 21.9812C41.2024 22.0264 41.2203 22.0806 41.2383 22.1258C41.2473 22.1529 41.2563 22.1891 41.2652 22.2162C41.2832 22.2704 41.3012 22.3246 41.3192 22.3698C41.3281 22.397 41.3371 22.415 41.3461 22.4421C41.3731 22.5235 41.4 22.5958 41.436 22.6681ZM44.4278 46.2412C44.3649 46.2412 44.302 46.2321 44.2391 46.2321C44.2481 46.1146 44.275 46.0062 44.302 45.8977C44.3469 45.8977 44.3828 45.8977 44.4278 45.8887C44.7961 45.8706 45.1555 45.8344 45.5238 45.7802C45.1555 45.7169 44.7961 45.6898 44.4278 45.6717C44.4188 45.6717 44.4008 45.6717 44.3918 45.6717C44.4547 45.5271 44.5445 45.3915 44.6434 45.265C44.9668 44.8763 45.461 44.6232 46 44.6232C46.602 44.6232 47.132 44.9215 47.4555 45.3915C47.5184 45.4819 47.5723 45.5723 47.6082 45.6717C47.5992 45.6717 47.5813 45.6717 47.5723 45.6717C47.2039 45.6898 46.8445 45.726 46.4762 45.7802C46.8445 45.8435 47.2039 45.8706 47.5723 45.8887C47.6172 45.8887 47.6531 45.8977 47.6981 45.8977C47.734 46.0062 47.752 46.1146 47.761 46.2321C47.6981 46.2321 47.6352 46.2412 47.5723 46.2412C47.2039 46.2592 46.8445 46.2954 46.4762 46.3496C46.8445 46.4129 47.2039 46.44 47.5723 46.4581C47.6352 46.4671 47.6981 46.4671 47.7699 46.4671C47.7699 46.5846 47.752 46.6931 47.725 46.8016C47.6711 46.8016 47.6262 46.8106 47.5723 46.8106C47.2039 46.8287 46.8445 46.8648 46.4762 46.9191C46.8445 46.9823 47.2039 47.0095 47.5723 47.0275C47.5992 47.0275 47.6262 47.0275 47.6531 47.0275C47.3926 47.6874 46.7547 48.1664 46 48.1664C45.2543 48.1664 44.6074 47.6964 44.3469 47.0275C44.3738 47.0275 44.4008 47.0275 44.4278 47.0275C44.7961 47.0095 45.1555 46.9733 45.5238 46.9191C45.1555 46.8558 44.7961 46.8287 44.4278 46.8106C44.3738 46.8106 44.3289 46.8016 44.275 46.8016C44.2481 46.6931 44.2301 46.5846 44.2301 46.4671C44.293 46.4671 44.3649 46.4581 44.4278 46.4581C44.7961 46.44 45.1555 46.4039 45.5238 46.3496C45.1555 46.2954 44.7961 46.2683 44.4278 46.2412ZM46.4852 38.1334C46.5391 38.6305 46.602 39.1458 46.6649 39.67C46.8086 40.8812 46.9613 42.1466 47.141 43.3849C46.8535 43.2765 46.557 43.2041 46.2336 43.1861C46.1527 43.177 46.0809 43.177 46 43.177C45.9461 43.177 45.8922 43.177 45.8383 43.1861C45.5238 43.2041 45.2274 43.2584 44.9399 43.3668C45.2004 41.5862 45.3981 39.7785 45.5867 38.1334C45.7305 36.877 45.8832 35.5303 46.036 34.4727C46.1797 35.476 46.3324 36.7414 46.4672 37.9436C46.4672 37.9978 46.4762 38.0701 46.4852 38.1334ZM45.3172 49.6307H46.7098C47.4555 49.6307 48.1742 49.7934 48.8391 50.1188C49.3512 50.3719 49.8094 50.6973 50.1957 51.095C50.3125 51.2215 50.4293 51.3481 50.5371 51.4836C51.211 52.3333 51.5973 53.3999 51.5973 54.5478V59.3745C51.5973 59.5824 51.4266 59.7541 51.2199 59.7541H40.807C40.6004 59.7541 40.4297 59.5824 40.4297 59.3745V54.5478C40.4297 54.4935 40.4297 54.4303 40.4297 54.376C40.4297 54.358 40.4297 54.3399 40.4297 54.3218C40.4297 54.2857 40.4297 54.2405 40.4387 54.2043C40.4387 54.1862 40.4477 54.1591 40.4477 54.141C40.4477 54.1049 40.4567 54.0687 40.4567 54.0326C40.4567 54.0055 40.4656 53.9874 40.4656 53.9603C40.4746 53.9241 40.4746 53.897 40.4746 53.8608C40.4746 53.8337 40.4836 53.8156 40.4836 53.7885C40.4926 53.7524 40.4926 53.7253 40.5016 53.6891C40.5016 53.662 40.5106 53.6439 40.5195 53.6168C40.5285 53.5897 40.5285 53.5535 40.5375 53.5264C40.5465 53.4993 40.5465 53.4722 40.5555 53.4541C40.5645 53.427 40.5735 53.3908 40.5735 53.3637C40.5824 53.3366 40.5824 53.3095 40.5914 53.2914C40.6004 53.2643 40.6094 53.2281 40.6184 53.201C40.6274 53.1739 40.6363 53.1468 40.6453 53.1287C40.6543 53.1016 40.6633 53.0654 40.6723 53.0383C40.6813 53.0112 40.6903 52.9931 40.6992 52.966C40.7082 52.9389 40.7172 52.9118 40.7262 52.8846C40.7352 52.8575 40.7442 52.8395 40.7531 52.8123C40.7621 52.7852 40.7711 52.7581 40.7891 52.731C40.7981 52.7039 40.807 52.6858 40.816 52.6587C40.825 52.6316 40.834 52.6045 40.852 52.5773C40.861 52.5502 40.8699 52.5321 40.8879 52.505C40.8969 52.4779 40.9149 52.4508 40.9238 52.4237C40.9328 52.3966 40.9508 52.3785 40.9598 52.3514C40.9688 52.3242 40.9867 52.2971 40.9957 52.27C41.0047 52.2429 41.0227 52.2248 41.0317 52.1977C41.0496 52.1706 41.0586 52.1435 41.0766 52.1164C41.0856 52.0892 41.1035 52.0712 41.1125 52.0531C41.1305 52.026 41.1395 51.9989 41.1574 51.9717C41.1664 51.9537 41.1844 51.9265 41.2024 51.9085C41.2203 51.8813 41.2383 51.8542 41.2473 51.8362C41.2653 51.8181 41.2742 51.791 41.2922 51.7729C41.3102 51.7458 41.3281 51.7187 41.3461 51.7006C41.3641 51.6825 41.382 51.6554 41.391 51.6373C41.409 51.6102 41.427 51.5921 41.4449 51.565C41.4629 51.5469 41.4809 51.5198 41.4988 51.5017C41.5168 51.4746 41.5348 51.4565 41.5528 51.4294C41.5707 51.4113 41.5887 51.3933 41.6067 51.3661C41.6246 51.339 41.6426 51.3209 41.6606 51.3029C41.6785 51.2848 41.6965 51.2667 41.7145 51.2396C41.7324 51.2215 41.7504 51.1944 41.7774 51.1763C41.7953 51.1583 41.8133 51.1402 41.8313 51.1221C41.8492 51.104 41.8762 51.0769 41.8942 51.0588C41.9121 51.0407 41.9301 51.0227 41.9481 51.0046C41.966 50.9865 41.993 50.9684 42.011 50.9413C42.0289 50.9232 42.0469 50.9052 42.0738 50.8871C42.0918 50.869 42.1188 50.8509 42.1367 50.8238C42.1547 50.8057 42.1817 50.7877 42.1996 50.7696C42.2176 50.7515 42.2445 50.7334 42.2715 50.7153C42.2895 50.6973 42.3164 50.6792 42.3344 50.6611C42.3524 50.643 42.3793 50.625 42.4063 50.6069C42.4242 50.5888 42.4512 50.5707 42.4692 50.5617C42.4961 50.5436 42.5141 50.5255 42.541 50.5075C42.559 50.4894 42.586 50.4803 42.6129 50.4623C42.6399 50.4442 42.6578 50.4261 42.6848 50.4171C42.7117 50.399 42.7297 50.39 42.7567 50.3719C42.7836 50.3538 42.8106 50.3448 42.8285 50.3267C42.8555 50.3086 42.8735 50.2996 42.9004 50.2815C42.9274 50.2634 42.9543 50.2544 42.9813 50.2363C43.0172 50.2182 43.0531 50.2001 43.0891 50.173L43.5024 49.9832C44.0774 49.7482 44.6883 49.6307 45.3172 49.6307ZM48.5606 72.336C48.5606 73.1043 47.9406 73.728 47.177 73.728H44.841C44.0774 73.728 43.4574 73.1043 43.4574 72.336V61.2003H48.5606V72.336ZM51.3906 45.3102C51.2649 44.8582 51.166 44.3973 51.0492 43.9453C50.9504 43.4844 50.8426 43.0324 50.7528 42.5714C50.5731 41.6495 50.4113 40.7275 50.2676 39.8056C50.1238 38.8836 49.9981 37.9526 49.8813 37.0216C49.7016 35.5574 49.5578 34.0931 49.432 32.6288C49.3961 32.2311 49.3692 31.8244 49.3422 31.4267C49.2164 29.7093 49.1266 27.9739 49.0727 26.2655L51.0852 26.3469C54.2207 26.5367 56.2242 26.9886 57.4551 28.5795C58.7668 30.2697 59.2071 33.2344 59.2071 38.513V59.2208C59.2071 61.9776 57.1586 64.2916 54.4363 64.6169C53.1785 64.7616 51.9477 64.8881 50.7617 64.9695C50.5012 64.9875 50.2496 65.0056 49.9981 65.0237V61.2093H51.211C51.7949 61.2093 52.316 60.9291 52.6485 60.4953C52.6574 60.4862 52.6664 60.4772 52.6754 60.4591C52.891 60.1608 53.0258 59.7903 53.0258 59.3835V54.5478C53.0258 54.4755 53.0258 54.3941 53.0258 54.3218C53.0258 54.2947 53.0258 54.2766 53.0258 54.2495C53.0258 54.1953 53.0168 54.1501 53.0168 54.1049C53.0168 54.0778 53.0078 54.0416 53.0078 54.0145C53.0078 53.9693 52.9988 53.9241 52.9988 53.8789C52.9988 53.8428 52.9899 53.8156 52.9899 53.7885C52.9899 53.7433 52.9809 53.7072 52.9719 53.662C52.9719 53.6258 52.9629 53.5987 52.9539 53.5626C52.9449 53.5264 52.9449 53.4812 52.936 53.4451C52.927 53.4089 52.927 53.3818 52.918 53.3456C52.909 53.3095 52.9 53.2643 52.9 53.2281C52.891 53.192 52.882 53.1649 52.8731 53.1287C52.8641 53.0925 52.8551 53.0564 52.8461 53.0112C52.8371 52.975 52.8281 52.9479 52.8192 52.9118C52.8102 52.8756 52.8012 52.8395 52.7922 52.8033C52.7832 52.7671 52.7742 52.74 52.7653 52.7039C52.7563 52.6677 52.7473 52.6316 52.7293 52.5954C52.7203 52.5593 52.7113 52.5321 52.6934 52.496C52.6844 52.4598 52.6664 52.4237 52.6574 52.3875C52.6485 52.3514 52.6305 52.3242 52.6215 52.2881C52.6125 52.2519 52.5945 52.2158 52.5766 52.1796C52.5676 52.1435 52.5496 52.1164 52.5406 52.0802C52.5227 52.044 52.5137 52.0079 52.4957 51.9717C52.4867 51.9446 52.4688 51.9085 52.4598 51.8814C52.4418 51.8452 52.4238 51.8181 52.4149 51.7819C52.4059 51.7548 52.3879 51.7187 52.3699 51.6915C52.352 51.6554 52.334 51.6283 52.316 51.5921C52.2981 51.565 52.2891 51.5288 52.2711 51.5017C52.2531 51.4656 52.2352 51.4385 52.2172 51.4023C52.1992 51.3752 52.1813 51.339 52.1633 51.3119C52.1453 51.2758 52.1274 51.2486 52.1004 51.2125C52.0824 51.1854 52.0645 51.1583 52.0465 51.1311C52.0285 51.095 52.0106 51.0679 51.9836 51.0317C51.9656 51.0046 51.9477 50.9775 51.9297 50.9504C51.9117 50.9142 51.8848 50.8871 51.8668 50.86C51.8488 50.8329 51.8309 50.8057 51.8129 50.7786C51.786 50.7515 51.768 50.7154 51.741 50.6882C51.7231 50.6611 51.7051 50.634 51.6781 50.6069C51.6512 50.5707 51.6242 50.5436 51.6063 50.5165C51.5883 50.4984 51.5703 50.4713 51.5524 50.4532L51.5434 50.4442C51.5164 50.408 51.4895 50.3809 51.4625 50.3448C51.4445 50.3267 51.4266 50.2996 51.3996 50.2815C51.3637 50.2453 51.3278 50.2092 51.3008 50.173C51.2828 50.1549 51.2738 50.1369 51.2559 50.1278C51.202 50.0736 51.157 50.0284 51.1031 49.9742C51.0852 49.9561 51.0672 49.938 51.0492 49.9199C51.0133 49.8838 50.9774 49.8567 50.9504 49.8296C50.9235 49.8115 50.9055 49.7934 50.8785 49.7663C50.8516 49.7392 50.8156 49.7121 50.7887 49.6849C50.7617 49.6669 50.7348 49.6488 50.7168 49.6217C50.6899 49.5945 50.6539 49.5674 50.627 49.5403C50.6 49.5222 50.5731 49.5042 50.5461 49.477C50.5102 49.4499 50.4832 49.4318 50.4473 49.4047C50.4293 49.3957 50.4203 49.3867 50.4024 49.3686C50.3934 49.3595 50.3754 49.3505 50.3664 49.3415C50.3395 49.3234 50.3035 49.2963 50.2676 49.2782C50.2406 49.2601 50.2137 49.242 50.1778 49.224C50.1418 49.2059 50.1149 49.1788 50.0789 49.1607L49.9891 49.1065C49.9531 49.0884 49.9262 49.0703 49.8902 49.0432C49.8363 49.0161 49.7914 48.9799 49.7375 48.9528C49.5578 48.3743 49.3871 47.7326 49.2344 47.0547C49.2164 46.9643 49.1985 46.8739 49.1715 46.7835V46.7654C49.1805 46.666 49.1895 46.5756 49.1895 46.4762C49.1895 46.4491 49.1895 46.4129 49.1895 46.3858C49.1895 46.3225 49.1895 46.2592 49.1805 46.205C49.1715 46.1056 49.1625 45.9971 49.1445 45.8977C49.1356 45.8073 49.1086 45.7079 49.0906 45.6175C49.0278 45.3463 48.9289 45.0842 48.7942 44.8492C48.4078 42.5805 48.1293 40.1039 47.8867 37.9436C47.6891 36.2262 47.5274 34.7348 47.3387 33.6412C47.2399 33.0536 47.132 32.5113 46.9613 32.0955C46.7637 31.6165 46.4762 31.3092 46.009 31.3092C45.1465 31.3092 44.8949 32.3667 44.6793 33.6412C44.4906 34.7348 44.3289 36.2262 44.1313 37.9436C43.8977 40.0496 43.6192 42.4539 43.2508 44.6684C43.0711 44.9577 42.9363 45.274 42.8555 45.6175C42.8285 45.7079 42.8106 45.7983 42.8016 45.8887C42.7836 45.9881 42.7746 46.0875 42.7656 46.196C42.7656 46.2592 42.7567 46.3225 42.7567 46.3767C42.7567 46.4039 42.7567 46.44 42.7567 46.4671C42.7567 46.5666 42.7656 46.675 42.7746 46.7745C42.7836 46.8377 42.7926 46.901 42.8016 46.9643C42.7926 46.9914 42.7926 47.0185 42.7836 47.0456C42.6399 47.7145 42.4692 48.3382 42.2985 48.9076C42.2445 48.9347 42.1996 48.9618 42.1457 48.9889C42.1098 49.007 42.0738 49.0251 42.0469 49.0522C42.0199 49.0703 41.984 49.0884 41.957 49.1065C41.9211 49.1245 41.8852 49.1516 41.8582 49.1697C41.8313 49.1878 41.8043 49.2059 41.7774 49.224C41.7414 49.2511 41.7145 49.2692 41.6785 49.2963C41.6516 49.3143 41.6246 49.3324 41.5977 49.3505C41.5617 49.3776 41.5348 49.3957 41.4988 49.4228C41.4719 49.4409 41.4449 49.459 41.418 49.477C41.382 49.5042 41.3551 49.5313 41.3192 49.5584C41.2922 49.5765 41.2742 49.5945 41.2473 49.6126C41.2113 49.6397 41.1754 49.6759 41.1485 49.703C41.1305 49.7211 41.1035 49.7392 41.0856 49.7572C41.0496 49.7934 41.0137 49.8296 40.9778 49.8567C40.9598 49.8747 40.9418 49.8838 40.9328 49.9019C40.825 50.0013 40.7262 50.1098 40.6274 50.2182C40.6094 50.2363 40.6004 50.2544 40.5824 50.2634C40.5465 50.2996 40.5106 50.3448 40.4836 50.3809C40.4656 50.399 40.4477 50.4261 40.4297 50.4442C40.4028 50.4803 40.3758 50.5165 40.3488 50.5527C40.3309 50.5798 40.3129 50.5978 40.2949 50.625C40.268 50.6611 40.241 50.6882 40.2141 50.7244L40.1602 50.7967C40.1332 50.8329 40.1153 50.86 40.0883 50.8961C40.0703 50.9232 40.0524 50.9504 40.0344 50.9775C40.0164 51.0136 39.9895 51.0407 39.9715 51.0769C39.9535 51.104 39.9356 51.1311 39.9176 51.1582C39.8996 51.1944 39.8817 51.2215 39.8547 51.2577C39.8367 51.2848 39.8188 51.3119 39.8008 51.339C39.7828 51.3752 39.7649 51.4113 39.7469 51.4384C39.7289 51.4656 39.711 51.5017 39.702 51.5288L39.6481 51.6373C39.6391 51.6644 39.6211 51.7006 39.6031 51.7277C39.5852 51.7638 39.5672 51.8 39.5492 51.8362C39.5403 51.8633 39.5223 51.8994 39.5133 51.9265C39.4953 51.9627 39.4774 51.9989 39.4684 52.035C39.4594 52.0621 39.4414 52.0983 39.4324 52.1254C39.4145 52.1616 39.4055 52.1977 39.3875 52.2339C39.3785 52.261 39.3606 52.2971 39.3516 52.3242C39.3336 52.3604 39.3246 52.3966 39.3156 52.4327C39.3067 52.4689 39.2977 52.496 39.2887 52.5321C39.2797 52.5683 39.2617 52.6045 39.2527 52.6406C39.2438 52.6768 39.2348 52.7039 39.2258 52.74C39.2168 52.7762 39.2078 52.8123 39.1988 52.8575C39.1899 52.8937 39.1809 52.9208 39.1719 52.957C39.1629 52.9931 39.1539 53.0383 39.1449 53.0745C39.136 53.1106 39.127 53.1377 39.127 53.1739C39.118 53.21 39.109 53.2552 39.1 53.2914C39.091 53.3275 39.091 53.3547 39.082 53.3908C39.0731 53.427 39.0731 53.4722 39.0641 53.5083C39.0641 53.5445 39.0551 53.5716 39.0461 53.6077C39.0371 53.6529 39.0371 53.6891 39.0281 53.7343C39.0281 53.7614 39.0192 53.7976 39.0192 53.8247C39.0102 53.8699 39.0102 53.9151 39.0102 53.9603C39.0102 53.9874 39.0012 54.0235 39.0012 54.0506C39.0012 54.1049 38.9922 54.1501 38.9922 54.1953C38.9922 54.2224 38.9922 54.2495 38.9922 54.2676C38.9922 54.3399 38.9922 54.4122 38.9922 54.4935V59.3202C38.9922 59.3835 38.9922 59.4468 39.0012 59.5101C39.0641 60.1337 39.4414 60.658 39.9625 60.9382C40.2141 61.0738 40.5016 61.1461 40.807 61.1461H42.0199V64.9604C40.6094 64.87 39.136 64.7345 37.6356 64.5537C36.5754 64.4271 35.6231 64.0023 34.8504 63.3696C33.6375 62.3663 32.8649 60.8478 32.8649 59.1666V38.504C32.8649 28.236 34.527 26.7265 40.9867 26.3288L42.9184 26.2565C42.9094 26.5277 42.9004 26.7898 42.8914 27.0609C42.8375 28.5162 42.7567 29.9714 42.6488 31.4176C42.5141 33.2886 42.3344 35.1506 42.1098 37.0126C42.002 37.9436 41.8672 38.8746 41.7235 39.7965C41.5797 40.7275 41.418 41.6495 41.2383 42.5624C41.1485 43.0234 41.0496 43.4753 40.9418 43.9363C40.834 44.3882 40.7262 44.8492 40.6004 45.3011C40.3578 46.205 40.0883 47.1089 39.7649 47.9857C40.1332 47.1179 40.4387 46.2321 40.7172 45.3373C40.861 44.8854 40.9867 44.4334 41.1125 43.9815C41.2293 43.5295 41.3551 43.0686 41.4629 42.6166C41.6875 41.7037 41.8852 40.7818 42.0738 39.8598C42.2625 38.9379 42.4242 38.0069 42.577 37.0849C42.8824 35.2229 43.143 33.361 43.3586 31.4899C43.4395 30.803 43.5113 30.1251 43.5832 29.4381C43.691 28.3716 43.7809 27.305 43.8617 26.2384C43.8977 26.2384 43.9426 26.2384 43.9785 26.2384C44.5715 26.2294 45.2184 26.2294 46.036 26.2294C46.8805 26.2294 47.5453 26.2294 48.1383 26.2384C48.1563 26.4915 48.1742 26.7446 48.1922 27.0067C48.309 28.5071 48.4617 30.0076 48.6324 31.499C48.8481 33.37 49.0996 35.241 49.4141 37.094C49.5668 38.0249 49.7375 38.9469 49.9172 39.8689C50.0969 40.7908 50.3035 41.7128 50.5281 42.6257C50.636 43.0866 50.7617 43.5386 50.8785 43.9905C51.0043 44.4425 51.1301 44.8944 51.2738 45.3463C51.5524 46.2412 51.8668 47.136 52.2262 47.9947C51.9028 47.1179 51.6242 46.2141 51.3906 45.3102ZM48.5695 23.0749C48.3809 23.2737 48.1742 23.4545 47.9496 23.5991C47.3656 23.9878 46.6918 24.1957 45.991 24.1957C45.3621 24.1957 44.7422 24.0239 44.2031 23.7076C44.1403 23.6714 44.0863 23.6353 44.0324 23.5991C43.7988 23.4454 43.5832 23.2556 43.3945 23.0477C42.7836 22.3879 42.4512 21.5292 42.4512 20.6254C42.4512 20.3903 42.4781 20.1553 42.5231 19.9294C42.8465 18.2662 44.311 17.0641 46 17.0641C46.9344 17.0641 47.8059 17.4347 48.4438 18.0493C48.9469 18.5374 49.3152 19.1701 49.468 19.8932C49.5219 20.1282 49.5399 20.3723 49.5399 20.6254C49.5309 21.5473 49.1895 22.415 48.5695 23.0749ZM59.1172 22.5145C59.1172 22.5506 59.1082 22.5777 59.1082 22.6048C59.1082 22.641 59.0992 22.6862 59.0992 22.7223C59.0992 22.7404 59.0903 22.7675 59.0903 22.7856C59.0813 22.8308 59.0723 22.876 59.0723 22.9212C59.0633 22.9664 59.0543 23.0116 59.0453 23.0568C56.7813 22.7404 54.6879 22.5777 52.7832 22.5777C52.2442 22.5777 51.7231 22.5868 51.2199 22.6139C51.0043 22.6229 50.7887 22.641 50.5731 22.65C50.8426 22.0354 50.9953 21.3575 51.0043 20.6705L59.1442 22.2975C59.1262 22.3879 59.1262 22.4512 59.1172 22.5145ZM64.6516 24.1324C64.0496 23.9787 62.7289 23.6805 60.9949 23.3822C60.8242 23.3551 60.6446 23.3189 60.4649 23.2918V23.2827C60.4828 23.1833 60.5008 23.0929 60.5188 22.9935C60.5188 22.9845 60.5188 22.9845 60.5188 22.9754C60.5277 22.876 60.5457 22.7856 60.5547 22.6862C60.5547 22.6772 60.5547 22.6591 60.5547 22.65C60.5547 22.641 60.5547 22.632 60.5547 22.6229L64.6965 23.4545C64.7235 23.5449 64.7414 23.6533 64.7504 23.7528C64.7504 23.8703 64.7324 24.0058 64.6516 24.1324Z" fill="black"/>
<path d="M51.5883 54.5478V59.3745C51.5883 59.5824 51.4176 59.7541 51.2109 59.7541H40.807C40.6004 59.7541 40.4297 59.5824 40.4297 59.3745V54.5478C40.4297 54.4936 40.4297 54.4303 40.4297 54.3761C40.4297 54.358 40.4297 54.3399 40.4297 54.3218C40.4297 54.2857 40.4297 54.2405 40.4387 54.2043C40.4387 54.1863 40.4477 54.1592 40.4477 54.1411C40.4477 54.1049 40.4566 54.0688 40.4566 54.0326C40.4566 54.0055 40.4656 53.9874 40.4656 53.9603C40.4746 53.9241 40.4746 53.897 40.4746 53.8609C40.4746 53.8338 40.4836 53.8157 40.4836 53.7886C40.4926 53.7524 40.4926 53.7253 40.5016 53.6891C40.5016 53.662 40.5105 53.6439 40.5195 53.6168C40.5285 53.5897 40.5285 53.5536 40.5375 53.5264C40.5465 53.4993 40.5465 53.4722 40.5555 53.4541C40.5645 53.427 40.5734 53.3909 40.5734 53.3637C40.5824 53.3366 40.5824 53.3095 40.5914 53.2914C40.6004 53.2643 40.6094 53.2282 40.6184 53.201C40.6273 53.1739 40.6363 53.1468 40.6453 53.1287C40.6543 53.1016 40.6633 53.0655 40.6723 53.0383C40.6813 53.0112 40.6902 52.9932 40.6992 52.966C40.7082 52.9389 40.7172 52.9118 40.7262 52.8847C40.7352 52.8576 40.7441 52.8395 40.7531 52.8124C40.7621 52.7853 40.7711 52.7581 40.7891 52.731C40.798 52.7039 40.807 52.6858 40.816 52.6587C40.825 52.6316 40.834 52.6045 40.852 52.5774C40.8609 52.5503 40.8699 52.5322 40.8879 52.5051C40.8969 52.4779 40.9148 52.4508 40.9238 52.4237C40.9328 52.3966 40.9508 52.3785 40.9598 52.3514C40.9687 52.3243 40.9867 52.2972 40.9957 52.2701C41.0047 52.2429 41.0227 52.2249 41.0316 52.1977C41.0496 52.1706 41.0586 52.1435 41.0766 52.1164C41.0855 52.0893 41.1035 52.0712 41.1125 52.0531C41.1305 52.026 41.1395 51.9989 41.1574 51.9718C41.1664 51.9537 41.1844 51.9266 41.2023 51.9085C41.2203 51.8814 41.2383 51.8543 41.2473 51.8362C41.2652 51.8181 41.2742 51.791 41.2922 51.7729C41.3102 51.7458 41.3281 51.7187 41.3461 51.7006C41.3641 51.6825 41.382 51.6554 41.391 51.6373C41.409 51.6102 41.427 51.5921 41.4449 51.565C41.4629 51.547 41.4809 51.5198 41.4988 51.5018C41.5168 51.4746 41.5348 51.4566 41.5527 51.4294C41.5707 51.4114 41.5887 51.3933 41.6066 51.3662C41.6246 51.3391 41.6426 51.321 41.6605 51.3029C41.6785 51.2848 41.6965 51.2668 41.7145 51.2396C41.7324 51.2216 41.7504 51.1944 41.7773 51.1764C41.7953 51.1583 41.8133 51.1402 41.8313 51.1221C41.8492 51.1041 41.8762 51.0769 41.8941 51.0589C41.9121 51.0408 41.9301 51.0227 41.948 51.0046C41.966 50.9865 41.993 50.9685 42.0109 50.9414C42.0289 50.9233 42.0469 50.9052 42.0738 50.8871C42.0918 50.869 42.1188 50.851 42.1367 50.8239C42.1547 50.8058 42.1816 50.7877 42.1996 50.7696C42.2176 50.7515 42.2445 50.7335 42.2715 50.7154C42.2895 50.6973 42.3164 50.6792 42.3344 50.6612C42.3523 50.6431 42.3793 50.625 42.4063 50.6069C42.4242 50.5888 42.4512 50.5708 42.4691 50.5617C42.4961 50.5437 42.5141 50.5256 42.541 50.5075C42.559 50.4894 42.5859 50.4804 42.6129 50.4623C42.6398 50.4442 42.6578 50.4261 42.6848 50.4171C42.7117 50.399 42.7297 50.39 42.7566 50.3719C42.7836 50.3538 42.8105 50.3448 42.8285 50.3267C42.8555 50.3086 42.8734 50.2996 42.9004 50.2815C42.9273 50.2635 42.9543 50.2544 42.9812 50.2363C43.0172 50.2183 43.0531 50.2002 43.0891 50.1731L43.5023 49.9833C44.0773 49.7482 44.6883 49.6307 45.3082 49.6307H46.7008C47.4465 49.6307 48.1652 49.7934 48.8301 50.1188C50.5371 50.9594 51.5883 52.6497 51.5883 54.5478Z" fill="#7DDCFC"/>
<path d="M47.1411 43.385C46.7907 43.2494 46.4043 43.1771 46 43.1771C45.6317 43.1771 45.2723 43.2404 44.9399 43.3579C45.2004 41.5772 45.3981 39.7695 45.5868 38.1244C45.7305 36.868 45.8832 35.5212 46.036 34.4637C46.1887 35.5212 46.3414 36.868 46.4852 38.1244C46.6739 39.7785 46.8805 41.6043 47.1411 43.385Z" fill="#7DDCFC"/>
<path opacity="0.2" d="M46.6649 39.67C46.5391 40.7999 46.3953 41.993 46.2336 43.1861C46.1528 43.1771 46.0809 43.1771 46 43.1771C45.9461 43.1771 45.8922 43.1771 45.8383 43.1861C45.5239 43.2042 45.2274 43.2584 44.9399 43.3669C45.2004 41.5862 45.3981 39.7785 45.5868 38.1334C45.7305 36.8771 45.8832 35.5303 46.036 34.4727C46.1797 35.476 46.3325 36.7415 46.4672 37.9436C46.4762 38.0069 46.4852 38.0702 46.4852 38.1334C46.5391 38.6306 46.602 39.1458 46.6649 39.67Z" fill="black"/>
<path opacity="0.2" d="M50.1958 51.095C50.1329 51.0589 50.061 51.0227 49.9891 50.9865C49.3243 50.6612 48.6055 50.4985 47.8598 50.4985H46.4672C45.8383 50.4985 45.2274 50.616 44.6614 50.851L44.2481 51.0408C44.2122 51.0589 44.1762 51.0769 44.1403 51.1041C44.1133 51.1131 44.0864 51.1312 44.0594 51.1493C44.0325 51.1673 44.0145 51.1764 43.9875 51.1944C43.9606 51.2125 43.9336 51.2216 43.9157 51.2396C43.8887 51.2577 43.8708 51.2668 43.8438 51.2848C43.8168 51.3029 43.7899 51.321 43.7719 51.33C43.745 51.3481 43.727 51.3571 43.7 51.3752C43.6731 51.3933 43.6551 51.4114 43.6282 51.4294C43.6102 51.4475 43.5833 51.4656 43.5653 51.4746C43.5383 51.4927 43.5204 51.5108 43.4934 51.5289C43.4754 51.547 43.4485 51.565 43.4305 51.5831C43.4125 51.6012 43.3856 51.6193 43.3586 51.6373C43.3407 51.6554 43.3137 51.6735 43.2958 51.6916C43.2778 51.7097 43.2508 51.7277 43.2329 51.7548C43.2149 51.7729 43.1969 51.791 43.17 51.8091C43.152 51.8272 43.125 51.8452 43.1071 51.8724C43.0891 51.8904 43.0711 51.9085 43.0532 51.9266C43.0352 51.9447 43.0083 51.9718 42.9903 51.9899C42.9723 52.0079 42.9543 52.026 42.9364 52.0441C42.9184 52.0622 42.8915 52.0893 42.8735 52.1074C42.8555 52.1254 42.8375 52.1435 42.8196 52.1706C42.8016 52.1887 42.7836 52.2158 42.7657 52.2339C42.7477 52.252 42.7297 52.2701 42.7118 52.2972C42.6938 52.3243 42.6758 52.3424 42.6579 52.3695C42.6399 52.3876 42.6219 52.4147 42.604 52.4327C42.586 52.4599 42.568 52.4779 42.55 52.5051C42.5321 52.5231 42.5231 52.5503 42.5051 52.5683C42.4872 52.5954 42.4692 52.6135 42.4512 52.6406C42.4422 52.6587 42.4243 52.6858 42.4063 52.7039C42.3883 52.731 42.3704 52.7581 42.3614 52.7762C42.3524 52.7943 42.3344 52.8214 42.3165 52.8395C42.2985 52.8666 42.2805 52.8937 42.2715 52.9208C42.2536 52.9389 42.2446 52.966 42.2356 52.9841C42.2176 53.0112 42.2086 53.0383 42.1907 53.0655C42.1817 53.0926 42.1637 53.1107 42.1547 53.1378C42.1368 53.1649 42.1278 53.192 42.1188 53.2191C42.1098 53.2462 42.0918 53.2643 42.0829 53.2914C42.0739 53.3185 42.0559 53.3457 42.0469 53.3728C42.0379 53.3999 42.029 53.418 42.011 53.4451C42.002 53.4722 41.984 53.4993 41.975 53.5264C41.9661 53.5536 41.9571 53.5716 41.9481 53.5987C41.9391 53.6259 41.9301 53.653 41.9122 53.6801C41.9032 53.7072 41.8942 53.7253 41.8852 53.7524C41.8762 53.7795 41.8672 53.8066 41.8583 53.8338C41.8493 53.8609 41.8403 53.879 41.8313 53.9061C41.8223 53.9332 41.8133 53.9603 41.8043 53.9965C41.7954 54.0236 41.7864 54.0416 41.7774 54.0688C41.7684 54.0959 41.7594 54.132 41.7504 54.1592C41.7415 54.1863 41.7325 54.2134 41.7325 54.2315C41.7235 54.2586 41.7145 54.2947 41.7145 54.3218C41.7055 54.349 41.7055 54.3761 41.6965 54.3942C41.6875 54.4213 41.6875 54.4574 41.6786 54.4845C41.6696 54.5117 41.6696 54.5297 41.6606 54.5569C41.6516 54.593 41.6516 54.6201 41.6426 54.6563C41.6426 54.6834 41.6336 54.7015 41.6336 54.7286C41.6247 54.7647 41.6247 54.7919 41.6247 54.828C41.6247 54.8551 41.6157 54.8732 41.6157 54.9003C41.6157 54.9365 41.6067 54.9726 41.6067 55.0088C41.6067 55.0269 41.5977 55.054 41.5977 55.0721C41.5977 55.1082 41.5977 55.1534 41.5887 55.1896C41.5887 55.2076 41.5887 55.2257 41.5887 55.2438C41.5887 55.298 41.5887 55.3613 41.5887 55.4155V59.7541H40.8161C40.6094 59.7541 40.4387 59.5824 40.4387 59.3745V54.5478C40.4387 54.4936 40.4387 54.4303 40.4387 54.3761C40.4387 54.358 40.4387 54.3399 40.4387 54.3218C40.4387 54.2857 40.4387 54.2405 40.4477 54.2043C40.4477 54.1863 40.4567 54.1592 40.4567 54.1411C40.4567 54.1049 40.4657 54.0688 40.4657 54.0326C40.4657 54.0055 40.4747 53.9874 40.4747 53.9603C40.4836 53.9241 40.4836 53.897 40.4836 53.8609C40.4836 53.8338 40.4926 53.8157 40.4926 53.7886C40.5016 53.7524 40.5016 53.7253 40.5106 53.6891C40.5106 53.662 40.5196 53.6439 40.5286 53.6168C40.5375 53.5897 40.5375 53.5536 40.5465 53.5264C40.5555 53.4993 40.5555 53.4722 40.5645 53.4541C40.5735 53.427 40.5825 53.3909 40.5825 53.3637C40.5915 53.3366 40.5915 53.3095 40.6004 53.2914C40.6094 53.2643 40.6184 53.2282 40.6274 53.201C40.6364 53.1739 40.6454 53.1468 40.6543 53.1287C40.6633 53.1016 40.6723 53.0655 40.6813 53.0383C40.6903 53.0112 40.6993 52.9932 40.7083 52.966C40.7172 52.9389 40.7262 52.9118 40.7352 52.8847C40.7442 52.8576 40.7532 52.8395 40.7622 52.8124C40.7711 52.7853 40.7801 52.7581 40.7981 52.731C40.8071 52.7039 40.8161 52.6858 40.825 52.6587C40.834 52.6316 40.843 52.6045 40.861 52.5774C40.87 52.5503 40.879 52.5322 40.8969 52.5051C40.9059 52.4779 40.9239 52.4508 40.9329 52.4237C40.9418 52.3966 40.9598 52.3785 40.9688 52.3514C40.9778 52.3243 40.9958 52.2972 41.0047 52.2701C41.0137 52.2429 41.0317 52.2249 41.0407 52.1977C41.0586 52.1706 41.0676 52.1435 41.0856 52.1164C41.0946 52.0893 41.1125 52.0712 41.1215 52.0531C41.1395 52.026 41.1485 51.9989 41.1665 51.9718C41.1754 51.9537 41.1934 51.9266 41.2114 51.9085C41.2293 51.8814 41.2473 51.8543 41.2563 51.8362C41.2743 51.8181 41.2833 51.791 41.3012 51.7729C41.3192 51.7458 41.3372 51.7187 41.3551 51.7006C41.3731 51.6825 41.3911 51.6554 41.4 51.6373C41.418 51.6102 41.436 51.5921 41.454 51.565C41.4719 51.547 41.4899 51.5198 41.5079 51.5018C41.5258 51.4746 41.5438 51.4566 41.5618 51.4294C41.5797 51.4114 41.5977 51.3933 41.6157 51.3662C41.6336 51.3391 41.6516 51.321 41.6696 51.3029C41.6875 51.2848 41.7055 51.2668 41.7235 51.2396C41.7415 51.2216 41.7594 51.1944 41.7864 51.1764C41.8043 51.1583 41.8223 51.1402 41.8403 51.1221C41.8583 51.1041 41.8852 51.0769 41.9032 51.0589C41.9211 51.0408 41.9391 51.0227 41.9571 51.0046C41.975 50.9865 42.002 50.9685 42.02 50.9414C42.0379 50.9233 42.0559 50.9052 42.0829 50.8871C42.1008 50.869 42.1278 50.851 42.1458 50.8239C42.1637 50.8058 42.1907 50.7877 42.2086 50.7696C42.2266 50.7515 42.2536 50.7335 42.2805 50.7154C42.2985 50.6973 42.3254 50.6792 42.3434 50.6612C42.3614 50.6431 42.3883 50.625 42.4153 50.6069C42.4333 50.5888 42.4602 50.5708 42.4782 50.5617C42.5051 50.5437 42.5231 50.5256 42.55 50.5075C42.568 50.4894 42.595 50.4804 42.6219 50.4623C42.6489 50.4442 42.6668 50.4261 42.6938 50.4171C42.7208 50.399 42.7387 50.39 42.7657 50.3719C42.7926 50.3538 42.8196 50.3448 42.8375 50.3267C42.8645 50.3086 42.8825 50.2996 42.9094 50.2815C42.9364 50.2635 42.9633 50.2544 42.9903 50.2363C43.0262 50.2183 43.0622 50.2002 43.0981 50.1731L43.5114 49.9833C44.0864 49.7482 44.6973 49.6307 45.3172 49.6307H46.7098C47.4555 49.6307 48.1743 49.7934 48.8391 50.1188C49.3602 50.3719 49.8094 50.7063 50.1958 51.095Z" fill="black"/>
<g opacity="0.2">
<path opacity="0.2" d="M64.7503 23.7348L61.0308 22.9936C61.0308 23.0026 61.0308 23.0117 61.0308 23.0207C61.0308 23.0298 61.0308 23.0478 61.0308 23.0569C61.0219 23.1563 61.0129 23.2557 60.9949 23.3461C60.9949 23.3551 60.9949 23.3642 60.9949 23.3642V23.3732C60.8242 23.3461 60.6445 23.31 60.4648 23.2828V23.2738C60.4828 23.1744 60.5008 23.084 60.5187 22.9846C60.5187 22.9755 60.5187 22.9755 60.5187 22.9665C60.5277 22.8671 60.5457 22.7767 60.5547 22.6773C60.5547 22.6682 60.5547 22.6501 60.5547 22.6411C60.5547 22.6321 60.5547 22.623 60.5547 22.614L64.6964 23.4455C64.7233 23.5269 64.7413 23.6263 64.7503 23.7348Z" fill="black"/>
<path opacity="0.2" d="M59.1262 22.3157C59.1262 22.379 59.1262 22.4513 59.1172 22.5145V22.5236C59.1172 22.5507 59.1082 22.5778 59.1082 22.6049L51.4624 21.0774C51.4534 21.6107 51.3636 22.1349 51.2019 22.6321C50.9862 22.6411 50.7706 22.6592 50.555 22.6682C50.8245 22.0536 50.9773 21.3757 50.9862 20.6887L59.1262 22.3157Z" fill="black"/>
<path opacity="0.2" d="M42.9902 20.3181C42.9453 20.544 42.9183 20.7791 42.9183 21.0141C42.9183 21.9179 43.2507 22.7766 43.8617 23.4365C43.9156 23.4907 43.9695 23.5449 44.0234 23.5992C43.7898 23.4455 43.5742 23.2557 43.3855 23.0478C42.7746 22.388 42.4421 21.5293 42.4421 20.6254C42.4421 20.3904 42.4691 20.1554 42.514 19.9294C42.8375 18.2663 44.3019 17.0641 45.991 17.0641C46.9254 17.0641 47.7969 17.4347 48.4348 18.0493C47.8687 17.6697 47.1859 17.4437 46.4672 17.4437C44.7781 17.4528 43.3226 18.6549 42.9902 20.3181Z" fill="black"/>
<path opacity="0.2" d="M33.3589 22.9031C33.3589 22.9393 33.3679 22.9755 33.3679 23.0116C33.2332 23.0297 33.0984 23.0478 32.9636 23.0658C32.9546 23.0207 32.9457 22.9755 32.9367 22.9303C32.9277 22.8851 32.9187 22.8399 32.9097 22.7947C32.9097 22.7766 32.9007 22.7495 32.9007 22.7314C32.8917 22.6681 32.8828 22.5958 32.8828 22.5326V22.5235C32.8738 22.4602 32.8738 22.397 32.8738 22.3247L41.0136 20.6977C41.0136 20.77 41.0136 20.8423 41.0226 20.9146C41.0226 20.9508 41.0316 20.9869 41.0316 21.0231C41.0406 21.0683 41.0406 21.1135 41.0406 21.1587V21.1677L33.35 22.7043C33.35 22.7676 33.35 22.8308 33.3589 22.9031Z" fill="black"/>
<path opacity="0.2" d="M31.4992 23.0749L27.7797 23.8161C27.7617 23.8793 27.7437 23.9607 27.7347 24.033C27.582 24.0691 27.4562 24.0963 27.3484 24.1234C27.2047 23.9155 27.2406 23.6353 27.3035 23.4274L31.4453 22.5958C31.4453 22.6049 31.4453 22.6139 31.4453 22.6229C31.4453 22.632 31.4453 22.6501 31.4453 22.6591C31.4543 22.7585 31.4632 22.8579 31.4812 22.9483C31.4812 22.9574 31.4812 22.9664 31.4812 22.9664C31.4902 23.0116 31.4902 23.0387 31.4992 23.0749Z" fill="black"/>
</g>
<path d="M46.6559 20.6345C46.6559 20.8062 46.593 20.9689 46.4762 21.0955C46.4402 21.1316 46.4043 21.1678 46.3594 21.1949C46.2516 21.2672 46.1168 21.3033 45.991 21.3033C45.8742 21.3033 45.7574 21.2672 45.6496 21.213C45.5957 21.1768 45.5418 21.1406 45.4969 21.0864C45.3801 20.9599 45.3172 20.7972 45.3172 20.6254C45.3172 20.5802 45.3172 20.535 45.3262 20.4898C45.3891 20.1735 45.6676 19.9475 45.982 19.9475C46.2965 19.9475 46.575 20.1735 46.6379 20.4808C46.6559 20.535 46.6559 20.5802 46.6559 20.6345Z" fill="black"/>
<path d="M48.5606 61.2004V72.3361C48.5606 73.1044 47.9407 73.728 47.177 73.728H44.8411C44.0774 73.728 43.4575 73.1044 43.4575 72.3361V61.2004H48.5606Z" fill="#545653"/>
<path opacity="0.2" d="M47.4645 45.4006C47.2668 45.3282 47.0602 45.2921 46.8445 45.2921C46.1168 45.2921 45.4879 45.6988 45.1645 46.3045C44.9219 46.2773 44.6793 46.2593 44.4367 46.2412C44.3738 46.2412 44.3109 46.2321 44.248 46.2321C44.257 46.1146 44.284 46.0062 44.3109 45.8977C44.3559 45.8977 44.3918 45.8977 44.4367 45.8887C44.8051 45.8706 45.1645 45.8344 45.5328 45.7802C45.1645 45.7169 44.8051 45.6898 44.4367 45.6717C44.4277 45.6717 44.4098 45.6717 44.4008 45.6717C44.4637 45.5271 44.5535 45.3915 44.6523 45.265C44.9758 44.8763 45.4699 44.6232 46.009 44.6232C46.6109 44.6232 47.141 44.9215 47.4645 45.3915C47.4555 45.3915 47.4645 45.4006 47.4645 45.4006Z" fill="black"/>
<path opacity="0.2" d="M45.1016 46.4129C45.0387 46.5575 44.9848 46.7021 44.9578 46.8648C44.7782 46.8468 44.6074 46.8377 44.4278 46.8287C44.3739 46.8287 44.3289 46.8196 44.275 46.8196C44.2481 46.7112 44.2301 46.6027 44.2301 46.4852C44.293 46.4852 44.3649 46.4762 44.4278 46.4762C44.6524 46.4581 44.877 46.44 45.1016 46.4129Z" fill="black"/>
<path opacity="0.2" d="M45.0477 47.9043C44.7333 47.7054 44.4907 47.3981 44.3469 47.0456C44.3739 47.0456 44.4008 47.0456 44.4278 47.0456C44.5985 47.0366 44.7692 47.0275 44.9399 47.0095C44.9309 47.0818 44.9309 47.1541 44.9309 47.2264C44.9219 47.4704 44.9668 47.6964 45.0477 47.9043Z" fill="black"/>
<path opacity="0.2" d="M46.0899 73.719H44.8411C44.0774 73.719 43.4575 73.0953 43.4575 72.327V61.2004H44.7063V72.3361C44.7063 73.1044 45.3262 73.719 46.0899 73.719Z" fill="black"/>
<path d="M88.7369 41.2192C88.2924 37.1732 87.2764 33.2451 85.707 29.4713C85.6797 29.3987 85.6435 29.3262 85.6162 29.2536C83.4481 24.1371 80.3456 19.5378 76.3994 15.5825C72.4532 11.6363 67.8538 8.53376 62.7283 6.36561C57.4395 4.13397 51.8059 3 46 3C40.1941 3 34.5605 4.13397 29.2627 6.38376C24.1371 8.5519 19.5468 11.6454 15.5916 15.6006C11.6454 19.5468 8.54283 24.1371 6.38376 29.2627C4.13397 34.5605 3 40.1941 3 46C3 51.8059 4.13397 57.4395 6.38376 62.7373C8.5519 67.8629 11.6454 72.4532 15.6006 76.4084C15.8184 76.6352 16.0451 76.853 16.2719 77.0707C20.0639 80.7084 24.4365 83.5842 29.2717 85.6253C34.5605 87.866 40.1941 89 46 89C51.8059 89 57.4395 87.866 62.7373 85.6162C67.8538 83.4481 72.4532 80.3456 76.4084 76.3994C79.9646 72.8432 82.8222 68.77 84.9449 64.2614C85.1808 63.7624 85.4076 63.2454 85.6253 62.7373C87.866 57.4395 89 51.8059 89 46C89 44.3943 88.9093 42.7977 88.7369 41.2192ZM82.9129 64.2614C76.1635 77.8327 62.1568 87.1857 46 87.1857C31.6939 87.1857 19.066 79.8557 11.6816 68.7519C7.34536 62.2293 4.81435 54.4004 4.81435 46C4.81435 23.2935 23.2935 4.81435 46 4.81435C59.8525 4.81435 72.1357 11.6907 79.6017 22.2139C83.5025 27.7114 86.088 34.1977 86.9044 41.2192C87.0859 42.7886 87.1766 44.3852 87.1766 46C87.1857 52.5589 85.6435 58.7549 82.9129 64.2614Z" fill="black"/>
<path opacity="0.25" d="M79 22.1469C71.5318 15.0843 61.4335 10.7484 50.3299 10.7484C31.2824 10.7484 15.2149 23.4879 10.2601 40.8761C9.2278 44.4879 8.68025 48.2963 8.68025 52.2299C8.68025 56.1635 9.2278 59.9719 10.2601 63.5836C10.6909 65.0945 11.2026 66.5696 11.795 68C7.50437 61.5811 5 53.8659 5 45.5875C5 23.2107 23.2846 5 45.7521 5C59.4588 5 71.6126 11.7765 79 22.1469Z" fill="white"/>
<path d="M79.4758 104.496C79.4758 106.114 79.0715 107.461 78.2809 108.5C77.3465 109.72 75.9 110.452 74.211 110.57C74.0403 110.579 73.8695 110.588 73.7078 110.588C73.2856 110.588 72.8903 110.552 72.5399 110.479L69.9164 110.651L66.5024 110.877L63.241 111.094L54.7059 111.664L48.0485 112.106V112.052C47.3117 112.296 46.5301 112.45 45.6945 112.513C45.4699 112.531 45.2453 112.531 45.0297 112.531C43.3227 112.531 42.0199 112.07 41.0406 111.492C39.7738 112.45 38.2106 113.001 36.4496 113.119C36.225 113.137 36.0004 113.137 35.7848 113.137C34.2395 113.137 33.0266 112.757 32.0832 112.26C31.1578 112.938 29.8461 113.553 28.0223 113.679C27.8067 113.697 27.591 113.697 27.3844 113.697C26.0188 113.697 24.9137 113.39 24.0422 112.965C22.991 113.679 21.7242 114.095 20.3137 114.194C20.116 114.203 19.9274 114.212 19.7387 114.212C19.2985 114.212 18.8492 114.176 18.418 114.104L12.6051 114.493V106.249C12.4793 105.752 12.4164 105.228 12.4164 104.695C12.4164 102.86 13.0813 101.224 14.3301 99.9674C15.0938 99.2082 16.0102 98.6478 17.0524 98.3133C16.666 98.3224 16.3156 98.3224 15.9832 98.3224C15.9742 98.3224 12.8207 98.3224 12.8117 98.3224C11.4102 98.3224 10.2422 97.2196 10.1524 95.8096L9.99065 93.2787C9.90081 91.8687 10.9071 90.6304 12.2996 90.4406C12.8477 90.3683 16.5043 90.305 16.9535 90.2508H16.9625C18.2114 90.1152 19.5141 89.9977 20.8258 89.9073C22.1285 89.8169 23.4313 89.7627 24.6891 89.7356H24.6981C25.2371 89.7265 25.7043 89.7175 26.1535 89.7175C26.9082 89.7175 27.591 89.7356 28.2469 89.7627C28.741 88.6419 29.4059 87.5663 30.2324 86.563C31.1488 85.4512 32.2 84.5021 33.341 83.7429C34.5719 82.9294 35.8567 82.3871 37.1594 82.1159C37.6176 82.0255 38.0668 81.9713 38.4981 81.9713C39.1719 81.9713 39.8098 82.0888 40.4028 82.3147C40.7531 82.2424 41.1305 82.1972 41.5348 82.1972H41.5617C42.586 82.1972 43.5473 82.4865 44.3469 83.0198L44.4098 83.065L44.4727 83.1102C45.3172 83.7338 45.8922 84.5925 46.1617 85.5597C46.2516 85.4964 46.3324 85.4331 46.4133 85.3698C46.8086 85.0896 47.1141 84.8998 47.4195 84.7552L47.5363 84.701L47.6621 84.6558C48.1473 84.4569 48.6594 84.3575 49.1805 84.3575C49.5668 84.3575 49.9442 84.4117 50.3035 84.5202C50.5102 84.5564 50.7168 84.6106 50.9145 84.6829C51.0313 84.6196 51.1391 84.5564 51.2469 84.5021L51.3637 84.4479L51.4895 84.4027C51.9028 84.24 52.334 84.1406 52.7653 84.1135C52.8731 83.9056 52.9809 83.7158 53.0887 83.544L53.2145 83.3542L53.3672 83.1825C54.1399 82.2696 55.2809 81.7453 56.4938 81.7363H56.5028C57.1946 81.7363 57.8774 81.899 58.5153 82.2153C59.5035 82.6944 60.2672 83.4988 60.6895 84.484C60.7164 84.5383 60.7344 84.5925 60.7524 84.6467C62.0731 84.9089 63.2141 85.7314 63.8879 86.9516L63.9328 87.042L63.9778 87.1324C64.0047 87.1866 64.0227 87.2318 64.0496 87.2861C65.0379 87.1324 65.9543 87.0149 66.709 86.9335H66.718C67.9668 86.798 69.2695 86.6805 70.5813 86.5901C71.884 86.4997 73.1867 86.4455 74.4445 86.4183H74.4535C74.9926 86.4093 75.4688 86.4003 75.909 86.4003C75.918 86.4003 79.1703 86.4003 79.1793 86.4003C80.5809 86.4003 81.7488 87.503 81.8387 88.913L82.0004 91.4439C82.0902 92.8539 81.084 94.0922 79.6914 94.282C79.1434 94.3544 75.3969 94.4176 74.9387 94.4719H74.9297C74.2559 94.5442 73.5641 94.6165 72.8723 94.6707C74.166 94.734 75.2801 95.0955 76.1965 95.7463C77.616 96.7587 78.4067 98.3405 78.4246 100.221L79.4668 100.148V104.116V104.134C79.4758 104.288 79.4758 104.396 79.4758 104.496Z" fill="#FFFAE4"/>
<path d="M15.9293 107.668L17.0075 107.596C17.1871 108.238 17.4836 108.726 17.8879 109.069C18.3012 109.413 18.7864 109.558 19.3434 109.521C19.6848 109.503 19.9543 109.404 20.152 109.223C20.3586 109.051 20.4575 108.825 20.4575 108.563C20.4575 108.157 20.0172 107.849 19.1368 107.632C18.8493 107.569 18.6246 107.506 18.4629 107.461C17.9328 107.316 17.5286 107.189 17.2411 107.081C16.9536 106.972 16.7469 106.864 16.6211 106.765C16.3246 106.53 16.1 106.267 15.9563 105.96C15.8125 105.662 15.7407 105.309 15.7407 104.921C15.7407 104.071 16.0192 103.366 16.5762 102.806C17.1332 102.245 17.87 101.938 18.7774 101.875C19.2446 101.848 19.6758 101.866 20.0801 101.938C20.4844 102.01 20.8707 102.146 21.2481 102.336L21.4457 101.902L22.5149 101.829V104.767L21.2571 104.848C21.1313 104.261 20.8977 103.827 20.5653 103.556C20.2239 103.285 19.7657 103.167 19.1996 103.203C18.8672 103.221 18.5887 103.33 18.3731 103.52C18.1575 103.71 18.0496 103.926 18.0496 104.18C18.0496 104.559 18.4629 104.812 19.2895 104.957C19.4961 104.993 19.6489 105.02 19.7657 105.038C20.9157 105.264 21.7243 105.581 22.1914 105.996C22.6586 106.412 22.8832 107 22.8832 107.768C22.8832 108.618 22.5957 109.323 22.0297 109.865C21.4547 110.407 20.6911 110.715 19.7207 110.778C19.2805 110.805 18.8493 110.778 18.445 110.696C18.0317 110.615 17.6274 110.47 17.2231 110.263L16.9446 110.751L15.9203 110.823V107.668H15.9293Z" fill="black"/>
<path d="M31.059 106.502C31.0321 107.641 30.7176 108.527 30.1067 109.178C29.5047 109.829 28.6512 110.19 27.5461 110.263C26.2524 110.353 25.2641 110.028 24.5723 109.304C23.8805 108.581 23.5301 107.497 23.5301 106.06C23.5301 104.704 23.8895 103.592 24.6082 102.724C25.327 101.857 26.2883 101.387 27.4922 101.305C27.8965 101.278 28.2739 101.305 28.6243 101.377C28.9747 101.45 29.3071 101.576 29.6215 101.757L29.8102 101.278L31.0231 101.197V104.677L29.6844 104.767C29.5497 103.963 29.352 103.384 29.0825 103.041C28.8129 102.688 28.4536 102.534 28.0043 102.562C27.4743 102.598 27.0969 102.878 26.8543 103.393C26.6118 103.908 26.495 104.731 26.495 105.843C26.495 106.991 26.6207 107.813 26.8633 108.301C27.1059 108.789 27.5102 109.015 28.0672 108.979C28.5704 108.943 28.9836 108.717 29.3071 108.283C29.6305 107.849 29.8102 107.289 29.8551 106.593L31.059 106.502Z" fill="black"/>
<path d="M31.7868 105.508C31.7868 104.107 32.1731 102.986 32.9368 102.137C33.7095 101.287 34.7696 100.817 36.1263 100.727C37.4739 100.636 38.5341 100.962 39.2977 101.712C40.0614 102.453 40.4477 103.529 40.4477 104.93C40.4477 106.331 40.0614 107.452 39.2977 108.292C38.5251 109.133 37.4649 109.603 36.1083 109.693C34.7606 109.784 33.7095 109.458 32.9368 108.708C32.1731 107.967 31.7868 106.9 31.7868 105.508ZM36.1263 102.019C35.6231 102.055 35.2548 102.327 35.0212 102.851C34.7876 103.366 34.6798 104.18 34.6798 105.291C34.6798 106.421 34.7966 107.235 35.0212 107.723C35.2458 108.211 35.6141 108.437 36.1173 108.41C36.6204 108.374 36.9888 108.102 37.2224 107.587C37.447 107.072 37.5638 106.258 37.5638 105.138C37.5638 104.017 37.447 103.203 37.2224 102.715C36.9888 102.218 36.6294 101.983 36.1263 102.019Z" fill="black"/>
<path d="M41.1754 104.885C41.1754 103.483 41.5617 102.363 42.3254 101.513C43.0981 100.663 44.1582 100.193 45.5149 100.103C46.8625 100.013 47.9227 100.338 48.6864 101.088C49.45 101.829 49.8364 102.905 49.8364 104.306C49.8364 105.707 49.45 106.828 48.6864 107.668C47.9137 108.509 46.8535 108.979 45.4969 109.069C44.1492 109.16 43.0981 108.834 42.3254 108.084C41.5528 107.343 41.1754 106.276 41.1754 104.885ZM45.5149 101.396C45.0117 101.432 44.6434 101.703 44.4098 102.227C44.1762 102.742 44.0684 103.556 44.0684 104.668C44.0684 105.797 44.1852 106.611 44.4098 107.099C44.6344 107.587 45.0028 107.813 45.5059 107.786C46.009 107.75 46.3774 107.479 46.611 106.963C46.8356 106.448 46.9524 105.635 46.9524 104.514C46.9524 103.393 46.8356 102.58 46.611 102.092C46.3774 101.585 46.009 101.359 45.5149 101.396Z" fill="black"/>
<path d="M52.7833 101.197C52.37 101.224 52.0645 101.405 51.8399 101.73C51.6243 102.055 51.5165 102.525 51.5165 103.122V103.158L50.4114 103.23V100.031L58.2727 99.5065V102.706L57.1766 102.779V102.742C57.1766 102.146 57.0688 101.703 56.8442 101.396C56.6286 101.097 56.3051 100.962 55.8918 100.989L55.5684 101.007V106.213C55.5684 106.539 55.6043 106.737 55.6852 106.81C55.7571 106.882 55.9278 106.909 56.1973 106.9L56.8262 106.855V108.057L51.9118 108.383V107.18L52.4958 107.144C52.7473 107.126 52.909 107.081 52.9899 107.009C53.0708 106.936 53.1067 106.728 53.1067 106.376V101.17L52.7833 101.197Z" fill="black"/>
<path d="M66.5114 98.9551V102.11L65.3254 102.191C65.2536 101.784 65.1727 101.468 65.0829 101.251C65.002 101.025 64.8942 100.853 64.7684 100.718C64.6247 100.564 64.454 100.465 64.2563 100.41C64.0497 100.356 63.7262 100.347 63.268 100.374L63.0434 100.392L62.0821 100.456V102.778L62.3696 102.76C62.711 102.742 62.9446 102.634 63.0793 102.435C63.2141 102.245 63.286 101.911 63.286 101.441V101.368L64.2204 101.305V105.165L63.286 105.228C63.268 104.64 63.2051 104.261 63.0793 104.089C62.9536 103.917 62.729 103.845 62.3786 103.872L62.0821 103.89V106.521L63.4028 106.43C63.9149 106.394 64.2653 106.34 64.4629 106.258C64.6606 106.177 64.8044 106.051 64.9122 105.87C65.029 105.662 65.1188 105.409 65.1907 105.12C65.2536 104.821 65.2985 104.46 65.3254 104.017L66.5563 103.935V107.424L58.677 107.949V106.747L59.0543 106.719C59.2969 106.701 59.4586 106.656 59.5395 106.593C59.6204 106.521 59.6563 106.331 59.6563 106.014V105.951V101.332C59.6563 101.007 59.6204 100.808 59.5485 100.736C59.4766 100.663 59.3059 100.636 59.0454 100.654L58.677 100.682V99.4884L66.5114 98.9551Z" fill="black"/>
<path d="M68.3352 105.364V100.745C68.3352 100.419 68.2993 100.221 68.2274 100.148C68.1555 100.076 67.9848 100.049 67.7243 100.067L67.3469 100.094V98.9009L72.486 98.5574C73.3934 98.4941 74.0762 98.6297 74.5254 98.9461C74.9747 99.2624 75.1993 99.7776 75.1993 100.483C75.1993 100.962 75.0645 101.368 74.786 101.712C74.5075 102.055 74.1211 102.299 73.618 102.453C74.1211 102.489 74.4715 102.643 74.6512 102.914C74.8309 103.185 74.9208 103.818 74.9208 104.821C74.9208 105.129 74.9477 105.336 74.9926 105.445C75.0376 105.562 75.1094 105.617 75.2172 105.608C75.3161 105.599 75.3969 105.526 75.4419 105.382C75.4868 105.237 75.5137 105.02 75.5137 104.722C75.5137 104.695 75.5137 104.65 75.5047 104.577C75.5047 104.514 75.4958 104.46 75.4958 104.433L76.2504 104.378C76.2504 104.415 76.2504 104.469 76.2594 104.55C76.2594 104.622 76.2684 104.686 76.2684 104.722C76.2684 105.508 76.1247 106.087 75.8372 106.466C75.5497 106.837 75.0915 107.045 74.4536 107.09C73.7797 107.135 73.2856 107.009 72.9711 106.71C72.6657 106.412 72.504 105.915 72.504 105.219V104.514C72.504 103.945 72.4411 103.592 72.3063 103.447C72.1715 103.303 71.902 103.239 71.4797 103.276L70.8149 103.321V105.219C70.8149 105.544 70.8508 105.752 70.9227 105.825C70.9946 105.897 71.1653 105.924 71.4169 105.906L71.8391 105.879V107.081L67.3469 107.379V106.159L67.7243 106.132C67.9848 106.114 68.1555 106.069 68.2274 105.978C68.2993 105.906 68.3352 105.698 68.3352 105.364ZM70.7879 102.164L71.4438 102.119C71.902 102.092 72.2254 101.983 72.4141 101.802C72.6028 101.622 72.6926 101.341 72.6926 100.953C72.6926 100.528 72.6028 100.23 72.4321 100.067C72.2614 99.9042 71.9559 99.8409 71.5247 99.868L70.7879 99.9132V102.164Z" fill="black"/>
<path d="M37.8331 85.7224C38.8663 85.5145 39.5312 85.8037 39.8456 86.5991C39.9265 86.7166 39.9984 86.8522 40.0433 87.0059C40.0882 87.1595 40.1062 87.277 40.0882 87.3674C40.0702 87.4578 40.0163 87.5572 39.9265 87.6657C39.8367 87.7742 39.6839 87.9369 39.4773 88.1447C39.2886 88.3346 39.1359 88.4882 39.0281 88.5967C38.9202 88.7051 38.8035 88.8588 38.6777 89.0486C38.5519 89.2384 38.462 89.4102 38.4171 89.5638C38.3992 89.6181 38.3632 89.6542 38.3093 89.6813C38.2554 89.7084 38.2015 89.7084 38.1566 89.6813L38.1476 89.6723C38.0308 89.6 37.941 89.5457 37.8781 89.4915C37.8152 89.4373 37.7523 89.3559 37.6894 89.2384C37.6265 89.1209 37.5995 88.9853 37.5995 88.8227C37.5995 88.6238 37.6624 88.434 37.7792 88.2532C37.905 88.0815 38.1206 87.8103 38.4531 87.4668C38.5968 87.3222 38.7046 87.2047 38.7945 87.1143C38.2195 87.0511 37.4558 87.3403 36.5035 87.964C35.5601 88.5967 34.7156 89.383 33.9878 90.3231C33.2421 91.2721 32.766 92.2031 32.5593 93.107C32.3527 94.0199 32.4335 94.8153 32.8019 95.5203C33.2601 95.7644 33.8171 95.7373 34.464 95.4209C35.1109 95.1136 35.6949 94.6616 36.2249 94.0651C36.5394 93.7216 36.7999 93.3691 37.0066 92.9895C37.2042 92.6099 37.339 92.2302 37.3929 91.8506C37.4558 91.471 37.3839 91.1456 37.1953 90.8654C37.1503 90.8021 37.1593 90.7389 37.2042 90.6665C37.2492 90.6033 37.312 90.5762 37.3839 90.5852C37.7074 90.6485 38.0038 90.9467 38.2554 91.4891C38.3632 91.5885 38.4261 91.8054 38.4351 92.1218C38.4441 92.4472 38.3992 92.7726 38.2913 93.107C38.2374 93.2607 38.1745 93.4233 38.1027 93.6041C38.0308 93.7849 37.887 94.038 37.6984 94.3724C37.5007 94.7068 37.2851 95.0232 37.0515 95.3034C36.8179 95.5836 36.5035 95.8728 36.1171 96.1621C35.7308 96.4513 35.3175 96.6773 34.8863 96.8309C34.6257 96.9213 34.3562 96.9756 34.0687 97.0027C33.6374 97.0298 33.2421 96.9665 32.8648 96.8219C32.4874 96.6682 32.1999 96.4332 31.9933 96.0988C31.8585 95.9632 31.7238 95.8096 31.598 95.6378C31.4722 95.4661 31.3374 95.1949 31.1937 94.8243C31.0589 94.4538 30.9781 94.0651 30.9781 93.6403C30.9511 92.9624 31.1218 92.1941 31.4812 91.3535C31.8406 90.5038 32.3437 89.6994 32.9816 88.9221C33.6734 88.0815 34.455 87.3765 35.2996 86.8161C36.1261 86.2647 36.9796 85.9032 37.8331 85.7224Z" fill="black"/>
<path d="M42.2624 86.084C42.5949 86.328 42.6847 86.7347 42.514 87.2861C42.496 87.3584 42.3703 87.7019 42.1367 88.2984C40.6992 91.9952 39.9355 94.3272 39.8367 95.2853C39.8277 95.3576 39.8007 95.4118 39.7468 95.4661C39.7019 95.5022 39.657 95.5293 39.6121 95.5384H39.6031C39.4863 95.5926 39.3695 95.6197 39.2527 95.6288C39.064 95.6378 38.8933 95.6017 38.7585 95.4932C38.4531 95.2582 38.3722 94.8153 38.498 94.1645C38.5429 93.9385 38.7855 93.2245 39.2257 92.0223C39.4234 91.48 39.5851 91.0552 39.6929 90.7389C39.8097 90.4315 39.9535 89.9977 40.1421 89.4463C40.3308 88.895 40.4746 88.443 40.5734 88.0905C40.6722 87.738 40.7441 87.3855 40.807 87.033C40.8699 86.6805 40.8789 86.4093 40.8429 86.2286C40.8249 86.1472 40.8609 86.0749 40.9417 86.0207C41.0316 85.9303 41.2292 85.8851 41.5257 85.8851C41.8222 85.8941 42.0648 85.9574 42.2624 86.084Z" fill="black"/>
<path d="M46.2246 89.5187C46.566 89.7537 46.6559 90.1514 46.4852 90.7118C46.4582 90.8112 46.3504 91.0462 46.1617 91.4168C45.9641 91.8236 45.7934 92.167 45.6676 92.4291C45.5418 92.7003 45.3981 93.0799 45.2363 93.5771C45.0746 94.0742 44.9668 94.5352 44.9309 94.9419C44.9219 95.0142 44.8859 95.0685 44.832 95.1227C44.7961 95.1588 44.7602 95.1859 44.7063 95.195C44.6973 95.195 44.6883 95.195 44.6793 95.195C44.5625 95.2492 44.4457 95.2763 44.3289 95.2854C44.1402 95.2944 43.9695 95.2583 43.8348 95.1498C43.5473 94.9329 43.4574 94.5442 43.5473 93.9748C43.1789 94.5171 42.8555 94.8967 42.5769 95.1136C42.3793 95.2763 42.1457 95.3667 41.8941 95.3848C41.7594 95.3938 41.6426 95.3758 41.5258 95.3306C41.2023 95.2221 40.9957 94.9781 40.9238 94.5804C40.807 93.9838 40.8519 93.333 41.0586 92.6461C41.2652 91.9501 41.5707 91.3445 41.975 90.8203C42.3793 90.296 42.7926 89.9345 43.2328 89.7447C43.691 89.5458 44.0504 89.5548 44.3109 89.7627C44.5625 89.9525 44.6883 90.3412 44.6973 90.9107C44.832 90.4316 44.859 90.0158 44.7871 89.6723C44.7691 89.591 44.8051 89.5187 44.8859 89.4554C44.9758 89.3741 45.1734 89.3289 45.4789 89.3289C45.7934 89.3108 46.036 89.3741 46.2246 89.5187ZM44.284 91.8416C44.302 91.7874 44.3289 91.7513 44.3738 91.7332C44.3559 91.7061 44.3469 91.6789 44.3469 91.6337C44.3738 91.4982 44.3738 91.3084 44.3559 91.0824C44.3379 90.8474 44.293 90.6847 44.2301 90.6033C44.1941 90.5672 44.1582 90.5491 44.1133 90.5491C44.0953 90.5491 44.0773 90.5491 44.0594 90.5491C43.8797 90.5581 43.691 90.6666 43.4934 90.8655C43.134 91.227 42.8195 91.7512 42.541 92.4382C42.2715 93.1251 42.1367 93.6855 42.1457 94.1375C42.1457 94.273 42.1637 94.3905 42.2086 94.508C42.2535 94.6165 42.2894 94.6798 42.3344 94.6979C42.3523 94.7069 42.3793 94.6979 42.4242 94.6707C42.7207 94.4448 43.0441 94.0832 43.3945 93.5861C43.7629 93.0619 44.0594 92.4924 44.284 91.8416Z" fill="black"/>
<path d="M49.9082 88.2532C50.0699 88.3527 50.1418 88.5063 50.1328 88.7052V88.7413L50.1238 88.7685C49.9441 88.9854 49.7734 89.3198 49.6117 89.7808C49.441 90.2418 49.3781 90.522 49.414 90.6214L49.4769 90.6395L49.4679 90.7118C49.441 90.8293 49.3601 90.8926 49.2164 90.9016C49.1265 90.9107 49.0277 90.8655 48.9199 90.766C48.8121 90.6756 48.7402 90.522 48.7043 90.3231C48.6773 90.1785 48.7582 89.8802 48.9468 89.4283C48.291 90.0791 47.9496 90.5943 47.9316 90.9739C47.9136 91.0914 47.9406 91.218 48.0125 91.3626C48.0843 91.4982 48.1562 91.6157 48.2281 91.7061C48.3 91.7965 48.4168 91.923 48.5785 92.0947C48.7761 92.3207 48.9289 92.4925 49.0367 92.628C49.1445 92.7636 49.2433 92.9444 49.3422 93.1704C49.441 93.4054 49.4769 93.6313 49.459 93.8663C49.441 94.1285 49.2972 94.3996 49.0187 94.6708C48.7402 94.942 48.3269 95.1318 47.7609 95.2312C47.689 95.2402 47.6082 95.2403 47.5363 95.2493C47.2039 95.2674 46.8714 95.2312 46.548 95.1408C46.2246 95.0414 45.982 94.8877 45.8113 94.6618C45.5867 94.3725 45.5507 94.0291 45.7124 93.6313C45.7574 93.5229 45.8382 93.4686 45.964 93.4686C46.0898 93.4686 46.1617 93.5319 46.1886 93.6494C46.2246 93.8121 46.3414 93.9387 46.557 94.011C46.7726 94.0923 47.0421 94.1104 47.3656 94.0833C47.5093 94.0652 47.689 94.011 47.8957 93.9115C48.1113 93.8212 48.264 93.7036 48.3539 93.5681C48.4168 93.4777 48.4437 93.3783 48.4168 93.2698C48.3898 93.1884 48.255 92.9986 48.0035 92.7094C47.7968 92.4653 47.6351 92.2574 47.5183 92.0947C47.4015 91.932 47.2847 91.7061 47.1589 91.4168C47.0332 91.1186 46.9703 90.8383 46.9703 90.5581C46.9792 90.3141 47.0781 90.0429 47.2757 89.7537C47.4644 89.4644 47.698 89.2023 47.9586 88.9763C48.2191 88.7504 48.4527 88.5606 48.6683 88.4069C48.884 88.2532 49.0367 88.1538 49.1355 88.1086C49.2883 88.0453 49.432 88.0815 49.5668 88.2081H49.5758C49.6656 88.1629 49.7824 88.1719 49.9082 88.2532Z" fill="black"/>
<path d="M53.7894 87.9912C53.9511 88.0906 54.023 88.2442 54.014 88.4431V88.4793L54.005 88.5064C53.8253 88.7233 53.6546 89.0577 53.4929 89.5187C53.3222 89.9797 53.2593 90.2599 53.2953 90.3593L53.3582 90.3774L53.3492 90.4497C53.3222 90.5672 53.2414 90.6305 53.0976 90.6395C53.0078 90.6486 52.9089 90.6034 52.8011 90.504C52.6933 90.4136 52.6214 90.2599 52.5855 90.0611C52.5585 89.9164 52.6394 89.6181 52.8281 89.1662C52.1722 89.817 51.8308 90.3322 51.8128 90.7118C51.7949 90.8294 51.8218 90.9559 51.8937 91.1005C51.9656 91.2361 52.0374 91.3536 52.1093 91.444C52.1812 91.5344 52.298 91.6609 52.4597 91.8327C52.6574 92.0586 52.8101 92.2304 52.9179 92.366C53.0257 92.5015 53.1246 92.6823 53.2234 92.9083C53.3222 93.1433 53.3582 93.3693 53.3402 93.6043C53.3222 93.8664 53.1785 94.1376 52.8999 94.4087C52.6214 94.6799 52.2082 94.8697 51.6421 94.9691C51.5703 94.9782 51.4894 94.9782 51.4175 94.9872C51.0851 95.0053 50.7527 94.9691 50.4292 94.8788C50.1058 94.7793 49.8632 94.6257 49.6925 94.3997C49.4679 94.1105 49.432 93.767 49.5937 93.3693C49.6386 93.2608 49.7195 93.2066 49.8453 93.2066C49.971 93.2066 50.0429 93.2698 50.0699 93.3873C50.1058 93.55 50.2226 93.6766 50.4382 93.7489C50.6539 93.8303 50.9234 93.8483 51.2468 93.8212C51.3906 93.8031 51.5703 93.7489 51.7769 93.6495C51.9925 93.5591 52.1453 93.4416 52.2351 93.306C52.298 93.2156 52.3249 93.1162 52.298 93.0077C52.271 92.9264 52.1363 92.7366 51.8847 92.4473C51.6781 92.2033 51.5164 91.9954 51.3996 91.8327C51.2828 91.67 51.166 91.444 51.0402 91.1548C50.9144 90.8565 50.8515 90.5763 50.8515 90.2961C50.8605 90.052 50.9593 89.7808 51.157 89.4916C51.3457 89.2024 51.5792 88.9402 51.8398 88.7143C52.1003 88.4883 52.3339 88.2985 52.5496 88.1448C52.7652 87.9912 52.9179 87.8917 53.0167 87.8465C53.1695 87.7833 53.3132 87.8194 53.448 87.946H53.457C53.5558 87.9008 53.6636 87.9188 53.7894 87.9912Z" fill="black"/>
<path d="M56.4578 88.8317C56.7992 89.0667 56.8891 89.4644 56.7094 90.0248C56.6824 90.1242 56.5836 90.3592 56.3949 90.7298C56.1883 91.1365 56.0176 91.48 55.9008 91.7421C55.775 92.0133 55.6312 92.3929 55.4695 92.89C55.2988 93.3872 55.2 93.8481 55.1551 94.2639C55.1461 94.3362 55.1191 94.3905 55.0652 94.4447C55.0203 94.4808 54.9754 94.508 54.9304 94.517H54.9215C54.7957 94.5712 54.6699 94.5983 54.5531 94.6074C54.3644 94.6164 54.2117 94.5803 54.0769 94.4718C53.7625 94.2368 53.6726 93.7939 53.7984 93.1431C53.8523 92.89 54.023 92.4381 54.3285 91.7964C54.4004 91.6156 54.4633 91.48 54.5082 91.3896C54.5531 91.2992 54.607 91.1637 54.6789 90.9919C54.7508 90.8202 54.8047 90.6756 54.8406 90.5671C54.8765 90.4586 54.9215 90.3231 54.9664 90.1694C55.0113 90.0067 55.0383 89.8711 55.0562 89.7446C55.0652 89.618 55.0742 89.4915 55.0832 89.3559C55.0832 89.2203 55.0742 89.0938 55.0562 88.9673C55.0383 88.8859 55.0742 88.8136 55.1551 88.7503C55.2449 88.669 55.4426 88.6238 55.739 88.6238C56.0176 88.6238 56.2601 88.6961 56.4578 88.8317ZM57.0957 85.5145C57.2844 85.6049 57.4102 85.7314 57.473 85.8851C57.5359 86.0478 57.5359 86.2195 57.473 86.4093C57.4461 86.4636 57.3832 86.572 57.2844 86.7347C56.907 87.3403 56.7273 87.7651 56.7453 88.0092C56.7543 88.0724 56.7273 88.1357 56.6555 88.1899C56.6195 88.2261 56.5836 88.2442 56.5387 88.2442H56.5297C56.5207 88.2442 56.5117 88.2442 56.5027 88.2351C56.3141 88.2532 56.1433 88.1899 55.9996 88.0272C55.766 87.747 55.7031 87.3765 55.8199 86.9065C55.8648 86.7618 55.9457 86.5359 56.0625 86.2195C56.1883 85.9122 56.2871 85.6862 56.3859 85.5416C56.4578 85.4512 56.5656 85.406 56.6914 85.406C56.8351 85.4151 56.9609 85.4422 57.0957 85.5145Z" fill="black"/>
<path d="M59.3237 88.4521C60.0964 88.1448 60.6175 88.2442 60.896 88.7503C61.0218 89.0125 61.0667 89.3017 61.0397 89.6361C61.0128 89.9615 60.9319 90.1875 60.8061 90.2959C60.7433 90.3411 60.6893 90.3502 60.6265 90.3231C60.5636 90.2959 60.5366 90.1875 60.5546 90.0157C60.5995 89.5819 60.5546 89.3288 60.4378 89.2565C60.321 89.1842 60.1144 89.2475 59.8089 89.4282C59.2608 89.7536 58.8206 90.2959 58.4702 91.0552C58.1198 91.8144 57.9761 92.4833 58.039 93.0617C58.0839 93.4685 58.2276 93.7035 58.4702 93.7487C58.7218 93.8029 59.0183 93.6583 59.3687 93.3329C59.719 93.0075 59.9886 92.5646 60.1952 92.0133C60.2311 91.9229 60.294 91.8867 60.3929 91.9229C60.4917 91.95 60.5186 92.0133 60.4827 92.1127C60.4198 92.2663 60.3569 92.4291 60.2851 92.5827C60.2132 92.7454 60.1054 92.9442 59.9706 93.1793C59.8358 93.4143 59.6921 93.6221 59.5394 93.8029C59.3956 93.9837 59.2069 94.1464 58.9913 94.282C58.7757 94.4175 58.5511 94.4898 58.3355 94.5079C58.2097 94.517 58.0839 94.5079 57.9491 94.4808C57.6886 94.4266 57.464 94.3 57.2753 94.1193C57.0866 93.9385 56.9429 93.7125 56.8441 93.4323C56.7452 93.1521 56.6913 92.8358 56.6823 92.4833C56.6823 91.9681 56.7722 91.4529 56.9609 90.9286C57.1495 90.4044 57.446 89.9163 57.8593 89.4644C58.2726 89.0034 58.7577 88.669 59.3237 88.4521Z" fill="black"/>
<path d="M63.7351 91.218C64.984 90.9739 66.2418 90.8112 67.4906 90.6666C68.7394 90.531 69.9972 90.4135 71.2461 90.3322C72.4949 90.2508 73.7527 90.1875 75.0015 90.1604C76.2504 90.1333 77.5082 90.1333 78.757 90.2056C77.5082 90.4497 76.2504 90.6124 75.0015 90.757C73.7527 90.8926 72.4949 91.0101 71.2461 91.0914C69.9972 91.1728 68.7394 91.236 67.4906 91.2632C66.2418 91.2903 64.993 91.2903 63.7351 91.218Z" fill="black"/>
<path d="M13.234 94.5804C14.4828 94.3364 15.7406 94.1737 16.9894 94.0291C18.2383 93.8935 19.4961 93.7759 20.7449 93.6946C21.9937 93.6132 23.2515 93.55 24.5004 93.5229C25.7492 93.4957 27.007 93.4957 28.2558 93.568C27.007 93.8121 25.7492 93.9748 24.5004 94.1194C23.2515 94.255 21.9937 94.3725 20.7449 94.4539C19.4961 94.5352 18.2383 94.5985 16.9894 94.6256C15.7406 94.6527 14.4828 94.6618 13.234 94.5804Z" fill="black"/>
</svg>
